<?xml version="1.0" encoding="utf-8"?>
<!-- Generator: Adobe Illustrator 22.1.0, SVG Export Plug-In . SVG Version: 6.00 Build 0)  -->
<svg version="1.1" id="Layer_1" xmlns="http://www.w3.org/2000/svg" xmlns:xlink="http://www.w3.org/1999/xlink" x="0px" y="0px" width="50px" height="50px"
	 viewBox="0 0 32 30" style="enable-background:new 0 0 32 30;" xml:space="preserve">
<style type="text/css">
	.st0{fill:url(#SVGID_1_);}
	.st1{fill:url(#SVGID_2_);}
	.st2{fill:url(#SVGID_3_);}
	.st3{fill:url(#SVGID_4_);}
	.st4{fill:#FFEDAD;}
	.st5{fill:url(#SVGID_5_);}
	.st6{fill:url(#SVGID_6_);}
	.st7{fill:url(#SVGID_7_);}
	.st8{fill:url(#SVGID_8_);}
	.st9{fill:url(#SVGID_9_);}
	.st10{fill:#FEEBFF;}
	.st11{fill:#FFF1AC;}
	.st12{fill:url(#SVGID_10_);}
	.st13{fill:url(#SVGID_11_);}
	.st14{opacity:0.29;}
	.st15{fill:url(#SVGID_12_);}
	.st16{fill:url(#SVGID_13_);}
	.st17{fill:url(#SVGID_14_);}
	.st18{fill:url(#SVGID_15_);}
	.st19{fill:url(#SVGID_16_);}
	.st20{fill:url(#SVGID_17_);}
	.st21{fill:url(#SVGID_18_);}
	.st22{fill:url(#SVGID_19_);}
	.st23{fill:url(#SVGID_20_);}
	.st24{fill:url(#SVGID_21_);}
	.st25{fill:url(#SVGID_22_);}
	.st26{fill:url(#SVGID_23_);}
</style>
<g id="Layer_2_2_">
	<g id="Layer_1-2_1_">
		
			<linearGradient id="SVGID_1_" gradientUnits="userSpaceOnUse" x1="-23.5398" y1="13.3179" x2="-23.3894" y2="1.6191" gradientTransform="matrix(0.96 -0.27 -0.58 -2.1 34.73 27.56)">
			<stop  offset="0.13" style="stop-color:#FED76E"/>
			<stop  offset="0.42" style="stop-color:#D1994E"/>
			<stop  offset="0.56" style="stop-color:#D86F2B"/>
		</linearGradient>
		<path class="st0" d="M9.4,7.5L0.4,7c0,0,0.9,7.7,4,9s7.1,3,7.1,3L9.4,7.5z"/>
		
			<linearGradient id="SVGID_2_" gradientUnits="userSpaceOnUse" x1="-22.5909" y1="12.5943" x2="-25.1216" y2="0.463" gradientTransform="matrix(0.96 -0.27 -0.58 -2.1 34.73 27.56)">
			<stop  offset="0" style="stop-color:#FED97A"/>
			<stop  offset="0.25" style="stop-color:#EBA04C"/>
			<stop  offset="0.45" style="stop-color:#EEB332"/>
		</linearGradient>
		<path class="st1" d="M11,8L0.7,7.4c0,0,0.8,6.8,3.6,8.2c2.8,1.4,7.2,3,7.2,3L11,8z"/>
		
			<linearGradient id="SVGID_3_" gradientUnits="userSpaceOnUse" x1="341.2829" y1="-33.4722" x2="341.4328" y2="-45.171" gradientTransform="matrix(-0.96 -0.27 0.58 -2.1 374.63 27.56)">
			<stop  offset="0.13" style="stop-color:#FED76E"/>
			<stop  offset="0.42" style="stop-color:#D1994E"/>
			<stop  offset="0.56" style="stop-color:#D86F2B"/>
		</linearGradient>
		<path class="st2" d="M22.6,7.2l9-0.5c0,0-0.9,7.7-4,9c-3.1,1.3-7.1,3-7.1,3L22.6,7.2z"/>
		
			<linearGradient id="SVGID_4_" gradientUnits="userSpaceOnUse" x1="342.2302" y1="-34.1894" x2="339.6995" y2="-46.3212" gradientTransform="matrix(-0.96 -0.27 0.58 -2.1 374.63 27.56)">
			<stop  offset="0" style="stop-color:#FED97A"/>
			<stop  offset="0.32" style="stop-color:#EBA04C"/>
			<stop  offset="0.58" style="stop-color:#EEB332"/>
		</linearGradient>
		<path class="st3" d="M21,7.8l10.3-0.6c0,0-0.8,6.8-3.6,8.2c-2.8,1.4-7.2,3-7.2,3L21,7.8z"/>
		<polygon class="st4" points="10.4,26.3 6.9,23.4 6.9,11 10.5,11 		"/>
		
			<linearGradient id="SVGID_5_" gradientUnits="userSpaceOnUse" x1="8.7032" y1="20.6505" x2="8.7032" y2="6.0701" gradientTransform="matrix(1 0 0 -1 0 32)">
			<stop  offset="0.67" style="stop-color:#E47B2E"/>
			<stop  offset="0.76" style="stop-color:#F19634"/>
			<stop  offset="0.85" style="stop-color:#FBAA39"/>
			<stop  offset="0.91" style="stop-color:#FFB13B"/>
		</linearGradient>
		<polygon class="st5" points="10.3,25.9 7.1,23.3 7.1,11.3 10.3,11.4 		"/>
		
			<linearGradient id="SVGID_6_" gradientUnits="userSpaceOnUse" x1="21.4566" y1="13.2073" x2="25.0111" y2="13.2073" gradientTransform="matrix(1 0 0 -1 0 32)">
			<stop  offset="0.54" style="stop-color:#E47B2E"/>
			<stop  offset="0.68" style="stop-color:#F19634"/>
			<stop  offset="0.81" style="stop-color:#FBAA39"/>
			<stop  offset="0.91" style="stop-color:#FFB13B"/>
		</linearGradient>
		<polygon class="st6" points="21.5,26.5 25,23.5 25,11.1 21.5,11.1 		"/>
		
			<linearGradient id="SVGID_7_" gradientUnits="userSpaceOnUse" x1="-325.2392" y1="20.5127" x2="-325.2392" y2="5.9318" gradientTransform="matrix(-1 0 0 -1 -302.02 32)">
			<stop  offset="0.54" style="stop-color:#E47B2E"/>
			<stop  offset="0.68" style="stop-color:#F19634"/>
			<stop  offset="0.81" style="stop-color:#FBAA39"/>
			<stop  offset="0.91" style="stop-color:#FFB13B"/>
		</linearGradient>
		<polygon class="st7" points="21.7,26.1 24.8,23.4 24.8,11.5 21.6,11.5 		"/>
		
			<linearGradient id="SVGID_8_" gradientUnits="userSpaceOnUse" x1="16.0457" y1="20.9715" x2="16.0457" y2="20.7647" gradientTransform="matrix(1 0 0 -1 0 32)">
			<stop  offset="0.25" style="stop-color:#771351"/>
			<stop  offset="0.64" style="stop-color:#DD1936"/>
		</linearGradient>
		<polygon class="st8" points="21.3,11 21.3,11.2 10.8,11.2 10.8,11 		"/>
		<path class="st4" d="M11,21.9l-0.1,4.7l4.9,3.1c0.1,0.1,0.2,0.1,0.3,0l5.1-3.2l-0.1-5.2l-5.2,2.1L11,21.9z"/>
		
			<linearGradient id="SVGID_9_" gradientUnits="userSpaceOnUse" x1="15.9871" y1="19.4572" x2="15.9871" y2="2.3711" gradientTransform="matrix(1 0 0 -1 0 32)">
			<stop  offset="0.68" style="stop-color:#E47B2E"/>
			<stop  offset="0.76" style="stop-color:#F19634"/>
			<stop  offset="0.85" style="stop-color:#FBAA39"/>
			<stop  offset="0.91" style="stop-color:#FFB13B"/>
		</linearGradient>
		<path class="st9" d="M11.2,12.5l0,14l4.7,3.1c0.1,0.1,0.2,0.1,0.2,0l4.8-3.1l-0.1-14L11.2,12.5z"/>
		<path class="st10" d="M26.2,19.8l-9.3,5.4c-0.6,0.3-1.3,0.3-1.9,0l-9.3-5.4c-0.6-0.3-1-1-1-1.6V7.4c0-0.7,0.4-1.3,1-1.6L15,0.4
			c0.6-0.3,1.3-0.3,1.9,0l9.3,5.4c0.6,0.3,1,1,1,1.6v10.7C27.2,18.8,26.8,19.5,26.2,19.8z"/>
		<path class="st11" d="M25.7,19l-9.1,5.1c-0.4,0.2-0.9,0.2-1.3,0L6.2,19c-0.4-0.2-0.6-0.6-0.6-1V7.6c0-0.4,0.2-0.8,0.6-1l9.1-5.1
			c0.4-0.2,0.9-0.2,1.3,0l9.1,5.1c0.4,0.2,0.6,0.6,0.6,1V18C26.3,18.4,26.1,18.8,25.7,19z"/>
		
			<linearGradient id="SVGID_10_" gradientUnits="userSpaceOnUse" x1="10.4173" y1="28.8979" x2="21.6533" y2="9.4358" gradientTransform="matrix(1 0 0 -1 0 32)">
			<stop  offset="0" style="stop-color:#FCE881"/>
			<stop  offset="0.31" style="stop-color:#FED65B"/>
			<stop  offset="0.64" style="stop-color:#FCC552"/>
			<stop  offset="1" style="stop-color:#F8C043"/>
		</linearGradient>
		<path class="st12" d="M16,25.5c-0.4,0-0.8-0.1-1.1-0.3L5.9,20c-0.7-0.4-1.1-1.1-1.1-1.9V7.6c0-0.8,0.4-1.5,1.1-1.9l9.1-5.2
			c0.7-0.4,1.5-0.4,2.2,0l9.1,5.2c0.7,0.4,1.1,1.1,1.1,1.9v10.4c0,0.8-0.4,1.5-1.1,1.9l-9.1,5.2C16.8,25.4,16.4,25.5,16,25.5z
			 M16,1.5c-0.2,0-0.3,0-0.5,0.1L6.5,6.8C6.2,7,6.1,7.3,6.1,7.6v10.4c0,0.3,0.2,0.6,0.5,0.8l9.1,5.2c0.3,0.2,0.6,0.2,0.9,0l9.1-5.2
			c0.3-0.2,0.5-0.5,0.5-0.8V7.6c0-0.3-0.2-0.6-0.5-0.8l-9.1-5.2C16.4,1.5,16.2,1.5,16,1.5L16,1.5z"/>
		<path class="st10" d="M25.1,18.6l-8.6,4.8c-0.3,0.2-0.8,0.2-1.1,0l-8.6-4.8c-0.3-0.2-0.6-0.6-0.6-0.9V8c0-0.4,0.2-0.8,0.6-0.9
			l8.6-4.8c0.3-0.2,0.8-0.2,1.1,0L25.1,7c0.3,0.2,0.6,0.6,0.6,0.9v9.7C25.7,18.1,25.5,18.4,25.1,18.6z"/>
		
			<linearGradient id="SVGID_11_" gradientUnits="userSpaceOnUse" x1="15.0448" y1="27.1783" x2="17.3388" y2="8.4785" gradientTransform="matrix(1 0 0 -1 0 32)">
			<stop  offset="0" style="stop-color:#FFEDB1"/>
			<stop  offset="0.27" style="stop-color:#FEDF6B"/>
			<stop  offset="0.62" style="stop-color:#FDC727"/>
			<stop  offset="0.93" style="stop-color:#F39D50"/>
		</linearGradient>
		<path class="st13" d="M25.2,18.5l-8.9,5.2c-0.1,0.1-0.3,0.1-0.5,0l-8.9-5.2c-0.1-0.1-0.2-0.2-0.2-0.4V7.8c0-0.2,0.1-0.3,0.2-0.4
			l8.9-5.2c0.1-0.1,0.3-0.1,0.5,0l8.9,5.2c0.1,0.1,0.2,0.2,0.2,0.4v10.3C25.4,18.3,25.3,18.4,25.2,18.5z"/>
		<g class="st14">
			
				<linearGradient id="SVGID_12_" gradientUnits="userSpaceOnUse" x1="6.9492" y1="19.0116" x2="25.1461" y2="19.0116" gradientTransform="matrix(1 0 0 -1 0 32)">
				<stop  offset="0" style="stop-color:#FFC961"/>
				<stop  offset="1" style="stop-color:#FFE98B"/>
			</linearGradient>
			<path class="st15" d="M16,23.6l-9.1-5.3V7.7L16,2.4l9.1,5.3v10.6L16,23.6z M7.9,17.8l8.2,4.8l8.2-4.8V8.2L16,3.4L7.9,8.2
				L7.9,17.8z"/>
		</g>
		
			<linearGradient id="SVGID_13_" gradientUnits="userSpaceOnUse" x1="11.0896" y1="27.6855" x2="20.9541" y2="10.6002" gradientTransform="matrix(1 0 0 -1 0 32)">
			<stop  offset="0" style="stop-color:#F0B335"/>
			<stop  offset="0.23" style="stop-color:#EEB854"/>
			<stop  offset="0.45" style="stop-color:#EFB550"/>
			<stop  offset="0.8" style="stop-color:#FFD06C"/>
			<stop  offset="1" style="stop-color:#FBEBBB"/>
		</linearGradient>
		<path class="st16" d="M16,24.2c-0.1,0-0.2,0-0.3-0.1l-9.2-5.3c-0.2-0.1-0.3-0.3-0.3-0.5V7.5c0-0.2,0.1-0.4,0.3-0.5l9.2-5.3
			c0.2-0.1,0.4-0.1,0.6,0L25.5,7c0.2,0.1,0.3,0.3,0.3,0.5v10.7c0,0.2-0.1,0.4-0.3,0.5l-9.2,5.3C16.2,24.1,16.1,24.2,16,24.2z
			 M7.3,18l8.8,5.1l8.8-5.1V7.8L16,2.7L7.3,7.8V18z"/>
		
			<linearGradient id="SVGID_14_" gradientUnits="userSpaceOnUse" x1="14.5159" y1="25.0154" x2="17.0877" y2="20.5613" gradientTransform="matrix(1 0 0 -1 0 32)">
			<stop  offset="0.27" style="stop-color:#FFDB63"/>
			<stop  offset="0.39" style="stop-color:#FFE176"/>
			<stop  offset="0.65" style="stop-color:#FFEB97"/>
			<stop  offset="0.86" style="stop-color:#FFF1AB"/>
			<stop  offset="1" style="stop-color:#FFF3B2"/>
		</linearGradient>
		<path class="st17" d="M16.2,12c0-0.1,0-6,0-6l-2.4,3.5L16.2,12z"/>
		
			<linearGradient id="SVGID_15_" gradientUnits="userSpaceOnUse" x1="14.9923" y1="25.292" x2="17.5644" y2="20.8375" gradientTransform="matrix(1 0 0 -1 0 32)">
			<stop  offset="0.27" style="stop-color:#F9D35A"/>
			<stop  offset="0.46" style="stop-color:#F4C64B"/>
			<stop  offset="0.78" style="stop-color:#EDB537"/>
			<stop  offset="1" style="stop-color:#EAAF30"/>
		</linearGradient>
		<polygon class="st18" points="16.2,6 18.5,9.6 16.2,12 		"/>
		
			<linearGradient id="SVGID_16_" gradientUnits="userSpaceOnUse" x1="19.3561" y1="22.8084" x2="18.9829" y2="17.239" gradientTransform="matrix(1 0 0 -1 0 32)">
			<stop  offset="0" style="stop-color:#F4BC46"/>
			<stop  offset="0.13" style="stop-color:#F6C350"/>
			<stop  offset="0.49" style="stop-color:#FBD267"/>
			<stop  offset="0.71" style="stop-color:#FDD870"/>
			<stop  offset="0.73" style="stop-color:#FDDA76"/>
			<stop  offset="0.83" style="stop-color:#FEE897"/>
			<stop  offset="0.91" style="stop-color:#FFF0AB"/>
			<stop  offset="0.97" style="stop-color:#FFF3B2"/>
		</linearGradient>
		<polygon class="st19" points="18.5,9.5 22.3,10.5 16.2,12 		"/>
		
			<linearGradient id="SVGID_17_" gradientUnits="userSpaceOnUse" x1="21.0942" y1="20.0109" x2="18.01" y2="19.0962" gradientTransform="matrix(1 0 0 -1 0 32)">
			<stop  offset="0" style="stop-color:#E9994A"/>
			<stop  offset="0.15" style="stop-color:#EC9C47"/>
			<stop  offset="0.71" style="stop-color:#F5A43F"/>
			<stop  offset="0.75" style="stop-color:#F4A63F"/>
			<stop  offset="1" style="stop-color:#EEAD3D"/>
		</linearGradient>
		<polygon class="st20" points="22.3,10.5 19.7,13.9 16.2,12 		"/>
		
			<linearGradient id="SVGID_18_" gradientUnits="userSpaceOnUse" x1="230.0048" y1="21.9367" x2="226.3148" y2="20.3805" gradientTransform="matrix(-1 0 0 -1 241.99 32)">
			<stop  offset="0" style="stop-color:#FFE0A1"/>
			<stop  offset="1.000000e-02" style="stop-color:#FFDFA0"/>
			<stop  offset="0.26" style="stop-color:#F7CE7A"/>
			<stop  offset="0.47" style="stop-color:#F2C363"/>
			<stop  offset="0.6" style="stop-color:#F0BF5A"/>
			<stop  offset="0.67" style="stop-color:#F2BC51"/>
			<stop  offset="0.87" style="stop-color:#F6B63D"/>
			<stop  offset="1" style="stop-color:#F7B436"/>
		</linearGradient>
		<polygon class="st21" points="13.8,9.5 10,10.5 16.2,12 		"/>
		
			<linearGradient id="SVGID_19_" gradientUnits="userSpaceOnUse" x1="230.7632" y1="20.0153" x2="227.679" y2="19.1006" gradientTransform="matrix(-1 0 0 -1 241.99 32)">
			<stop  offset="0" style="stop-color:#F1A426"/>
			<stop  offset="3.000000e-02" style="stop-color:#F1A426"/>
			<stop  offset="0.71" style="stop-color:#F3A81D"/>
			<stop  offset="1" style="stop-color:#F2A41C"/>
		</linearGradient>
		<polygon class="st22" points="10,10.5 12.6,13.9 16.2,12 		"/>
		
			<linearGradient id="SVGID_20_" gradientUnits="userSpaceOnUse" x1="12.9488" y1="17.9079" x2="15.2652" y2="16.5699" gradientTransform="matrix(1 0 0 -1 0 32)">
			<stop  offset="0" style="stop-color:#E1A31A"/>
			<stop  offset="0.24" style="stop-color:#EAB639"/>
			<stop  offset="0.57" style="stop-color:#F6CE5F"/>
			<stop  offset="0.83" style="stop-color:#FCDD76"/>
			<stop  offset="1" style="stop-color:#FFE27F"/>
		</linearGradient>
		<polygon class="st23" points="12.6,13.9 12.4,17.8 16.2,12 		"/>
		
			<linearGradient id="SVGID_21_" gradientUnits="userSpaceOnUse" x1="14.0475" y1="17.3207" x2="16.9364" y2="14.9726" gradientTransform="matrix(1 0 0 -1 0 32)">
			<stop  offset="0" style="stop-color:#E19318"/>
			<stop  offset="0.46" style="stop-color:#D97F21"/>
			<stop  offset="1" style="stop-color:#D16B29"/>
		</linearGradient>
		<polygon class="st24" points="16.2,12 16.1,16.4 12.4,17.8 		"/>
		
			<linearGradient id="SVGID_22_" gradientUnits="userSpaceOnUse" x1="298.4611" y1="16.2778" x2="300.8344" y2="14.9066" gradientTransform="matrix(-1 -1.000000e-02 1.000000e-02 -1 317.68 33.36)">
			<stop  offset="0" style="stop-color:#F7CD43"/>
			<stop  offset="0.54" style="stop-color:#FACA53"/>
			<stop  offset="1" style="stop-color:#FBC85C"/>
		</linearGradient>
		<polygon class="st25" points="19.8,13.9 19.8,17.8 16.2,12 		"/>
		
			<linearGradient id="SVGID_23_" gradientUnits="userSpaceOnUse" x1="299.5967" y1="15.6694" x2="302.4863" y2="13.3214" gradientTransform="matrix(-1 -1.000000e-02 1.000000e-02 -1 317.68 33.36)">
			<stop  offset="0" style="stop-color:#EDAE3D"/>
			<stop  offset="0.26" style="stop-color:#EDA636"/>
			<stop  offset="1" style="stop-color:#EE9227"/>
		</linearGradient>
		<polygon class="st26" points="16.2,12 16.2,16.4 19.8,17.8 		"/>
	</g>
</g>
</svg>
