<?xml version="1.0" encoding="utf-8"?>
<!-- Generator: Adobe Illustrator 22.1.0, SVG Export Plug-In . SVG Version: 6.00 Build 0)  -->
<svg version="1.1" id="Layer_1" xmlns="http://www.w3.org/2000/svg" xmlns:xlink="http://www.w3.org/1999/xlink" x="0px" y="0px" width="50px" height="50px"
	 viewBox="0 0 30 30" style="enable-background:new 0 0 30 30;" xml:space="preserve">
<style type="text/css">
	.st0{fill:#F1AD7D;}
	.st1{fill:url(#SVGID_1_);}
	.st2{fill:url(#SVGID_2_);}
	.st3{fill:#FEEBFF;}
	.st4{fill:#FFFDF3;}
	.st5{fill:url(#SVGID_3_);}
	.st6{fill:#FFCFB5;}
	.st7{fill:url(#SVGID_4_);}
	.st8{opacity:0.39;}
	.st9{fill:url(#SVGID_5_);}
	.st10{fill:url(#SVGID_6_);}
	.st11{fill:#EECFC0;}
	.st12{fill:#FEBB99;}
	.st13{fill:url(#SVGID_7_);}
	.st14{fill:url(#SVGID_8_);}
	.st15{fill:url(#SVGID_9_);}
</style>
<g id="Layer_2_1_">
	<g id="Layer_1-2">
		<polygon class="st0" points="24.7,29.9 20.6,26.9 20.6,11.8 24.8,11.8 		"/>
		
			<linearGradient id="SVGID_1_" gradientUnits="userSpaceOnUse" x1="-1577.9473" y1="19.7774" x2="-1577.9473" y2="2.5577" gradientTransform="matrix(1 0 0 -1 1600.67 32)">
			<stop  offset="0.55" style="stop-color:#A05629"/>
			<stop  offset="0.63" style="stop-color:#B16735"/>
			<stop  offset="0.73" style="stop-color:#C1753F"/>
			<stop  offset="0.89" style="stop-color:#D5874C"/>
			<stop  offset="1" style="stop-color:#DC8E51"/>
		</linearGradient>
		<polygon class="st1" points="24.5,29.4 20.9,26.8 20.8,12.2 24.6,12.2 		"/>
		<polygon class="st0" points="5.5,29.9 9.6,26.9 9.6,11.8 5.4,11.8 		"/>
		
			<linearGradient id="SVGID_2_" gradientUnits="userSpaceOnUse" x1="-2587.6711" y1="19.7774" x2="-2587.6711" y2="2.5577" gradientTransform="matrix(-1 0 0 -1 -2580.2 32)">
			<stop  offset="0.55" style="stop-color:#A05629"/>
			<stop  offset="0.63" style="stop-color:#B16735"/>
			<stop  offset="0.73" style="stop-color:#C1753F"/>
			<stop  offset="0.89" style="stop-color:#D5874C"/>
			<stop  offset="1" style="stop-color:#DC8E51"/>
		</linearGradient>
		<polygon class="st2" points="5.7,29.4 9.3,26.8 9.3,12.2 5.6,12.2 		"/>
		<path class="st3" d="M26,21.8l-9.8,5.7c-0.8,0.4-1.7,0.4-2.5,0l-9.8-5.7c-0.8-0.4-1.2-1.2-1.2-2.1V8.2c0-0.9,0.5-1.7,1.2-2.1
			l9.6-5.6c0.9-0.5,2-0.5,2.9,0L26,6.1c0.8,0.4,1.2,1.2,1.2,2.1v11.5C27.3,20.6,26.8,21.4,26,21.8z"/>
		<path class="st4" d="M25.7,20.9l-10,5.7c-0.4,0.2-0.9,0.2-1.3,0l-10-5.7c-0.4-0.2-0.7-0.7-0.7-1.1V8.3c0-0.5,0.3-0.9,0.7-1.1
			l10-5.7c0.4-0.2,0.9-0.2,1.3,0l10,5.7c0.4,0.2,0.7,0.7,0.7,1.1v11.5C26.3,20.3,26.1,20.7,25.7,20.9z"/>
		
			<linearGradient id="SVGID_3_" gradientUnits="userSpaceOnUse" x1="8.8261" y1="28.6517" x2="21.1738" y2="7.2655" gradientTransform="matrix(1 0 0 -1 0 32)">
			<stop  offset="0" style="stop-color:#F8B097"/>
			<stop  offset="0.31" style="stop-color:#E99C79"/>
			<stop  offset="0.64" style="stop-color:#D47B56"/>
			<stop  offset="1" style="stop-color:#B85C29"/>
		</linearGradient>
		<path class="st5" d="M15,27.9c-0.4,0-0.8-0.1-1.2-0.3l-9.9-5.7c-0.7-0.4-1.2-1.2-1.2-2.1V8.3c0-0.9,0.5-1.6,1.2-2.1l9.9-5.7
			c0.7-0.4,1.7-0.4,2.4,0l9.9,5.7c0.7,0.4,1.2,1.2,1.2,2.1v11.5c0,0.9-0.5,1.6-1.2,2.1l0,0l-9.9,5.7C15.8,27.8,15.4,27.9,15,27.9z
			 M15,1.6c-0.2,0-0.3,0-0.5,0.1L4.6,7.4C4.3,7.6,4.1,7.9,4.1,8.3v11.5c0,0.4,0.2,0.7,0.5,0.9l9.9,5.7c0.3,0.2,0.7,0.2,1,0l9.9-5.7
			l0,0c0.3-0.2,0.5-0.5,0.5-0.9V8.3c0-0.4-0.2-0.7-0.5-0.9l-9.9-5.7C15.3,1.6,15.2,1.6,15,1.6L15,1.6z"/>
		<path class="st6" d="M25.5,20.7l-9.8,5.6c-0.4,0.2-0.9,0.2-1.3,0l-9.8-5.6C4.3,20.5,4,20.1,4,19.6V8.5C4,8,4.3,7.6,4.6,7.4
			l9.8-5.6c0.4-0.2,0.9-0.2,1.3,0l9.8,5.6c0.4,0.2,0.6,0.6,0.6,1.1v11.2C26.1,20.1,25.9,20.5,25.5,20.7z"/>
		
			<linearGradient id="SVGID_4_" gradientUnits="userSpaceOnUse" x1="14.2121" y1="24.7984" x2="16.749" y2="4.1201" gradientTransform="matrix(1 0 0 -1 0 32)">
			<stop  offset="0" style="stop-color:#F3B785"/>
			<stop  offset="0.27" style="stop-color:#ECA973"/>
			<stop  offset="0.62" style="stop-color:#D58049"/>
			<stop  offset="1" style="stop-color:#D07741"/>
		</linearGradient>
		<path class="st7" d="M25.1,20.4L15.3,26c-0.2,0.1-0.4,0.1-0.5,0L5,20.4c-0.2-0.1-0.3-0.3-0.3-0.4V8.5c0-0.2,0.1-0.4,0.3-0.4
			l9.8-5.7c0.2-0.1,0.4-0.1,0.5,0l9.8,5.7c0.2,0.1,0.3,0.3,0.3,0.4v11.4C25.4,20.1,25.3,20.3,25.1,20.4z"/>
		<g class="st8">
			
				<linearGradient id="SVGID_5_" gradientUnits="userSpaceOnUse" x1="15.0754" y1="29.5599" x2="15.0754" y2="6.3466" gradientTransform="matrix(1 0 0 -1 0 32)">
				<stop  offset="0" style="stop-color:#E89E67"/>
				<stop  offset="0.73" style="stop-color:#B95A2E"/>
				<stop  offset="1" style="stop-color:#B86434"/>
			</linearGradient>
			<path class="st9" d="M15.1,25.7c-0.1,0-0.3,0-0.4-0.1l-9.2-5.4c-0.3-0.1-0.4-0.4-0.4-0.7V8.7c0-0.3,0.2-0.6,0.4-0.7l9.2-5.4
				c0.3-0.2,0.6-0.2,0.8,0l9.2,5.4c0.3,0.1,0.4,0.4,0.4,0.7v10.8c0,0.3-0.2,0.6-0.4,0.7l-9.2,5.4C15.4,25.6,15.2,25.7,15.1,25.7z
				 M6.1,19.3l9,5.3l9-5.3V8.8l-9-5.3l-9,5.3L6.1,19.3z"/>
		</g>
		
			<linearGradient id="SVGID_6_" gradientUnits="userSpaceOnUse" x1="9.6014" y1="27.3323" x2="20.4545" y2="8.5335" gradientTransform="matrix(1 0 0 -1 0 32)">
			<stop  offset="0" style="stop-color:#CF7B55"/>
			<stop  offset="0.23" style="stop-color:#E4895C"/>
			<stop  offset="0.45" style="stop-color:#EB9565"/>
			<stop  offset="0.8" style="stop-color:#F2A475"/>
			<stop  offset="1" style="stop-color:#FFC8A9"/>
		</linearGradient>
		<path class="st10" d="M15,26.4c-0.1,0-0.3,0-0.4-0.1L4.5,20.5c-0.2-0.1-0.4-0.4-0.4-0.7V8.3c0-0.3,0.2-0.5,0.4-0.7l10.1-5.8
			c0.2-0.1,0.5-0.1,0.8,0l10.1,5.8c0.2,0.1,0.4,0.4,0.4,0.7v11.6c0,0.3-0.2,0.5-0.4,0.7l0,0l-10.1,5.8C15.3,26.4,15.2,26.4,15,26.4z
			 M5,19.8l10,5.7l10-5.7V8.3L15,2.6L5,8.3V19.8z"/>
		<polygon class="st11" points="10.7,11.3 20,11.4 15.2,19.2 		"/>
		<polygon class="st12" points="10.9,11.5 19.7,11.6 15.2,18.9 		"/>
		
			<linearGradient id="SVGID_7_" gradientUnits="userSpaceOnUse" x1="10.5092" y1="25.4327" x2="13.5297" y2="19.7168" gradientTransform="matrix(0.9999 1.274056e-02 1.274056e-02 -0.9999 -0.2549 37.2547)">
			<stop  offset="0.2" style="stop-color:#C06A43"/>
			<stop  offset="0.47" style="stop-color:#D27A4E"/>
			<stop  offset="0.75" style="stop-color:#DF8656"/>
			<stop  offset="0.88" style="stop-color:#E8945F"/>
			<stop  offset="1" style="stop-color:#ED9B64"/>
		</linearGradient>
		<polygon class="st13" points="10.7,11.3 8.9,10.4 15.1,20.9 15.2,19.2 		"/>
		
			<linearGradient id="SVGID_8_" gradientUnits="userSpaceOnUse" x1="8.786" y1="26.5651" x2="21.6292" y2="26.5651" gradientTransform="matrix(0.9999 1.274056e-02 1.274056e-02 -0.9999 -0.2549 37.2547)">
			<stop  offset="0.2" style="stop-color:#FFE3CA"/>
			<stop  offset="0.55" style="stop-color:#F9C5A9"/>
			<stop  offset="0.75" style="stop-color:#F6B99C"/>
			<stop  offset="0.88" style="stop-color:#F5AF8C"/>
			<stop  offset="1" style="stop-color:#F4AA85"/>
		</linearGradient>
		<polygon class="st14" points="20,11.4 21.7,10.5 8.9,10.4 10.7,11.3 		"/>
		
			<linearGradient id="SVGID_9_" gradientUnits="userSpaceOnUse" x1="19.519" y1="24.8714" x2="16.6034" y2="19.046" gradientTransform="matrix(0.9999 1.274056e-02 1.274056e-02 -0.9999 -0.2549 37.2547)">
			<stop  offset="0.2" style="stop-color:#D0804F"/>
			<stop  offset="0.36" style="stop-color:#D58754"/>
			<stop  offset="0.75" style="stop-color:#DF945F"/>
			<stop  offset="0.86" style="stop-color:#EA9E65"/>
			<stop  offset="1" style="stop-color:#F1A569"/>
		</linearGradient>
		<polygon class="st15" points="15.1,20.9 21.7,10.5 20,11.4 15.2,19.2 		"/>
	</g>
</g>
</svg>
