<?xml version="1.0" encoding="utf-8"?>
<!-- Generator: Adobe Illustrator 22.1.0, SVG Export Plug-In . SVG Version: 6.00 Build 0)  -->
<svg version="1.1" id="Layer_1" xmlns="http://www.w3.org/2000/svg" xmlns:xlink="http://www.w3.org/1999/xlink" x="0px" y="0px" width="50px" height="50px"
	 viewBox="0 0 30 28" style="enable-background:new 0 0 30 28;" xml:space="preserve">
<style type="text/css">
	.st0{fill:#BB4E8F;}
	.st1{fill:url(#SVGID_1_);}
	.st2{fill:url(#SVGID_2_);}
	.st3{fill:url(#SVGID_3_);}
	.st4{fill:url(#SVGID_4_);}
	.st5{fill:url(#SVGID_5_);}
	.st6{fill:url(#SVGID_6_);}
	.st7{fill:url(#SVGID_7_);}
	.st8{fill:url(#SVGID_8_);}
	.st9{fill:url(#SVGID_9_);}
	.st10{fill:url(#SVGID_10_);}
	.st11{fill:url(#SVGID_11_);}
	.st12{fill:url(#SVGID_12_);}
	.st13{fill:url(#SVGID_13_);}
	.st14{fill:url(#SVGID_14_);}
	.st15{fill:url(#SVGID_15_);}
	.st16{fill:url(#SVGID_16_);}
	.st17{fill:url(#SVGID_17_);}
	.st18{fill:url(#SVGID_18_);}
	.st19{fill:#FEEBFF;}
	.st20{fill:url(#SVGID_19_);}
	.st21{fill:url(#SVGID_20_);}
	.st22{fill:url(#SVGID_21_);}
	.st23{fill:url(#SVGID_22_);}
	.st24{fill:url(#SVGID_23_);}
	.st25{fill:url(#SVGID_24_);}
	.st26{fill:url(#SVGID_25_);}
	.st27{fill:url(#SVGID_26_);}
	.st28{fill:url(#SVGID_27_);}
	.st29{fill:url(#SVGID_28_);}
	.st30{fill:url(#SVGID_29_);}
	.st31{fill:url(#SVGID_30_);}
	.st32{fill:url(#SVGID_31_);}
	.st33{fill:url(#SVGID_32_);}
	.st34{fill:url(#SVGID_33_);}
	.st35{fill:url(#SVGID_34_);}
</style>
<g id="Layer_2_1_">
	<g id="Layer_1-2">
		<polygon class="st0" points="7.8,16 7.8,24.8 9.7,23.3 9.7,16.6 		"/>
		
			<linearGradient id="SVGID_1_" gradientUnits="userSpaceOnUse" x1="8.8112" y1="15.1085" x2="8.6915" y2="9.1414" gradientTransform="matrix(1 0 0 -1 0 32)">
			<stop  offset="0.38" style="stop-color:#791958"/>
			<stop  offset="1" style="stop-color:#C31B3F"/>
		</linearGradient>
		<polygon class="st1" points="7.9,16.1 7.8,24.6 9.6,23.3 9.7,16.6 		"/>
		<polygon class="st0" points="22.5,15.8 22.6,24.5 20.6,23 20.6,16.3 		"/>
		
			<linearGradient id="SVGID_2_" gradientUnits="userSpaceOnUse" x1="2122.4453" y1="15.4012" x2="2122.3262" y2="9.4341" gradientTransform="matrix(-1 0 0 -1 2143.97 32)">
			<stop  offset="0.38" style="stop-color:#791958"/>
			<stop  offset="1" style="stop-color:#C31B3F"/>
		</linearGradient>
		<polygon class="st2" points="22.4,15.8 22.5,24.3 20.7,23 20.7,16.3 		"/>
		<polygon class="st0" points="13,25.6 11.5,24.3 11.5,18.8 13.1,18.8 		"/>
		
			<linearGradient id="SVGID_3_" gradientUnits="userSpaceOnUse" x1="12.2855" y1="12.9916" x2="12.2855" y2="6.5539" gradientTransform="matrix(1 0 0 -1 0 32)">
			<stop  offset="0.38" style="stop-color:#791958"/>
			<stop  offset="1" style="stop-color:#C31B3F"/>
		</linearGradient>
		<polygon class="st3" points="13,25.4 11.6,24.3 11.6,19 13,19 		"/>
		<polygon class="st0" points="17.7,25.6 19.2,24.3 19.2,18.9 17.7,18.9 		"/>
		
			<linearGradient id="SVGID_4_" gradientUnits="userSpaceOnUse" x1="2072.1768" y1="12.9845" x2="2072.1768" y2="6.5468" gradientTransform="matrix(-1 0 0 -1 2090.6399 32)">
			<stop  offset="0.38" style="stop-color:#791958"/>
			<stop  offset="1" style="stop-color:#C31B3F"/>
		</linearGradient>
		<polygon class="st4" points="17.8,25.5 19.2,24.3 19.2,19 17.8,19 		"/>
		<polygon class="st0" points="13.1,18.8 13,25.6 15.4,27.9 17.7,25.6 17.7,18.9 		"/>
		
			<linearGradient id="SVGID_5_" gradientUnits="userSpaceOnUse" x1="15.3801" y1="13.2375" x2="15.3801" y2="4.2433" gradientTransform="matrix(1 0 0 -1 0 32)">
			<stop  offset="0.25" style="stop-color:#771351"/>
			<stop  offset="0.64" style="stop-color:#DD1936"/>
		</linearGradient>
		<polygon class="st5" points="13.1,18.8 13.1,25.5 15.4,27.8 17.7,25.5 17.7,18.8 		"/>
		<polygon class="st0" points="10,16.7 10,22.9 15.3,19.3 20.4,22.9 20.4,16.7 		"/>
		
			<linearGradient id="SVGID_6_" gradientUnits="userSpaceOnUse" x1="15.2236" y1="15.3071" x2="15.2236" y2="9.0957" gradientTransform="matrix(1 0 0 -1 0 32)">
			<stop  offset="0.38" style="stop-color:#791958"/>
			<stop  offset="1" style="stop-color:#C31B3F"/>
		</linearGradient>
		<polygon class="st6" points="10,16.7 10,22.9 15.4,19.3 20.4,22.9 20.4,16.7 		"/>
		
			<linearGradient id="SVGID_7_" gradientUnits="userSpaceOnUse" x1="2.021467e-02" y1="28.3944" x2="9.5819" y2="28.3944" gradientTransform="matrix(1 0 0 -1 0 32)">
			<stop  offset="0" style="stop-color:#FFE5FF"/>
			<stop  offset="0.45" style="stop-color:#887FF1"/>
			<stop  offset="0.82" style="stop-color:#682FBC"/>
		</linearGradient>
		<path class="st7" d="M9.6,4.2L0.2,0.9c0,0-1,2.9,1.2,3.7s5,1.8,5,1.8L9.6,4.2z"/>
		
			<linearGradient id="SVGID_8_" gradientUnits="userSpaceOnUse" x1="0.3401" y1="29.1409" x2="9.2304" y2="26.9081" gradientTransform="matrix(1 0 0 -1 0 32)">
			<stop  offset="0" style="stop-color:#F1C7FD"/>
			<stop  offset="0.45" style="stop-color:#887FF1"/>
			<stop  offset="0.82" style="stop-color:#B53CD9"/>
		</linearGradient>
		<path class="st8" d="M9.3,4.3L0.3,1c0,0-0.8,2.5,1.1,3.3c1.9,0.8,5.1,1.8,5.1,1.8L9.3,4.3z"/>
		
			<linearGradient id="SVGID_9_" gradientUnits="userSpaceOnUse" x1="1.2212" y1="24.9726" x2="10.7826" y2="24.9726" gradientTransform="matrix(1 0 0 -1 0 32)">
			<stop  offset="0" style="stop-color:#FFE5FF"/>
			<stop  offset="0.45" style="stop-color:#887FF1"/>
			<stop  offset="0.82" style="stop-color:#682FBC"/>
		</linearGradient>
		<path class="st9" d="M10.8,7.6L1.4,4.3c0,0-1,2.9,1.2,3.7c2.2,0.8,5,1.8,5,1.8L10.8,7.6z"/>
		
			<linearGradient id="SVGID_10_" gradientUnits="userSpaceOnUse" x1="1.5414" y1="25.7179" x2="10.4311" y2="23.4851" gradientTransform="matrix(1 0 0 -1 0 32)">
			<stop  offset="0" style="stop-color:#9A92F5"/>
			<stop  offset="0.45" style="stop-color:#B241E1"/>
			<stop  offset="0.82" style="stop-color:#B53CD9"/>
		</linearGradient>
		<path class="st10" d="M10.5,7.7l-9-3.2c0,0-0.8,2.5,1.1,3.3c1.9,0.8,5.1,1.8,5.1,1.8L10.5,7.7z"/>
		
			<linearGradient id="SVGID_11_" gradientUnits="userSpaceOnUse" x1="2.5772" y1="21.6147" x2="12.1389" y2="21.6147" gradientTransform="matrix(1 0 0 -1 0 32)">
			<stop  offset="0" style="stop-color:#FFE5FF"/>
			<stop  offset="0.45" style="stop-color:#887FF1"/>
			<stop  offset="0.82" style="stop-color:#682FBC"/>
		</linearGradient>
		<path class="st11" d="M12.1,11L2.8,7.6c0,0-1,2.9,1.2,3.7c2.2,0.8,5,1.8,5,1.8L12.1,11z"/>
		
			<linearGradient id="SVGID_12_" gradientUnits="userSpaceOnUse" x1="2.8966" y1="22.3584" x2="11.7869" y2="20.1261" gradientTransform="matrix(1 0 0 -1 0 32)">
			<stop  offset="0" style="stop-color:#857AE7"/>
			<stop  offset="0.37" style="stop-color:#AF45DE"/>
			<stop  offset="0.82" style="stop-color:#B53CD9"/>
		</linearGradient>
		<path class="st12" d="M11.9,11.1l-9-3.2c0,0-0.8,2.5,1.1,3.3C5.8,12,9,13,9,13L11.9,11.1z"/>
		
			<linearGradient id="SVGID_13_" gradientUnits="userSpaceOnUse" x1="1724.61" y1="28.2842" x2="1734.1716" y2="28.2842" gradientTransform="matrix(-1 0 0 -1 1754.61 32)">
			<stop  offset="0" style="stop-color:#FFE5FF"/>
			<stop  offset="0.45" style="stop-color:#887FF1"/>
			<stop  offset="0.82" style="stop-color:#682FBC"/>
		</linearGradient>
		<path class="st13" d="M20.4,4.3L29.8,1c0,0,1,2.9-1.2,3.7s-5,1.8-5,1.8L20.4,4.3z"/>
		
			<linearGradient id="SVGID_14_" gradientUnits="userSpaceOnUse" x1="1724.9304" y1="29.0292" x2="1733.8201" y2="26.7965" gradientTransform="matrix(-1 0 0 -1 1754.61 32)">
			<stop  offset="0" style="stop-color:#F1C7FD"/>
			<stop  offset="0.45" style="stop-color:#887FF1"/>
			<stop  offset="0.82" style="stop-color:#B53CD9"/>
		</linearGradient>
		<path class="st14" d="M20.7,4.4l9-3.2c0,0,0.8,2.5-1.1,3.3c-1.9,0.8-5,1.8-5,1.8L20.7,4.4z"/>
		
			<linearGradient id="SVGID_15_" gradientUnits="userSpaceOnUse" x1="1725.811" y1="24.8611" x2="1735.3723" y2="24.8611" gradientTransform="matrix(-1 0 0 -1 1754.61 32)">
			<stop  offset="0" style="stop-color:#FFE5FF"/>
			<stop  offset="0.45" style="stop-color:#887FF1"/>
			<stop  offset="0.82" style="stop-color:#682FBC"/>
		</linearGradient>
		<path class="st15" d="M19.2,7.8l9.3-3.4c0,0,1,2.9-1.2,3.7s-5,1.8-5,1.8L19.2,7.8z"/>
		
			<linearGradient id="SVGID_16_" gradientUnits="userSpaceOnUse" x1="1726.1312" y1="25.6064" x2="1735.0215" y2="23.3737" gradientTransform="matrix(-1 0 0 -1 1754.61 32)">
			<stop  offset="0" style="stop-color:#9A92F5"/>
			<stop  offset="0.45" style="stop-color:#B241E1"/>
			<stop  offset="0.82" style="stop-color:#B53CD9"/>
		</linearGradient>
		<path class="st16" d="M19.5,7.8l9-3.2c0,0,0.8,2.5-1.1,3.3c-1.9,0.8-5.1,1.8-5.1,1.8L19.5,7.8z"/>
		
			<linearGradient id="SVGID_17_" gradientUnits="userSpaceOnUse" x1="1727.167" y1="21.5059" x2="1736.7286" y2="21.5059" gradientTransform="matrix(-1 0 0 -1 1754.61 32)">
			<stop  offset="0" style="stop-color:#FFE5FF"/>
			<stop  offset="0.45" style="stop-color:#887FF1"/>
			<stop  offset="0.82" style="stop-color:#682FBC"/>
		</linearGradient>
		<path class="st17" d="M17.9,11.1l9.3-3.4c0,0,1,2.9-1.2,3.7c-2.2,0.8-5,1.8-5,1.8L17.9,11.1z"/>
		
			<linearGradient id="SVGID_18_" gradientUnits="userSpaceOnUse" x1="1727.4874" y1="22.2493" x2="1736.3772" y2="20.0166" gradientTransform="matrix(-1 0 0 -1 1754.61 32)">
			<stop  offset="0" style="stop-color:#857AE7"/>
			<stop  offset="0.37" style="stop-color:#AF45DE"/>
			<stop  offset="0.82" style="stop-color:#B53CD9"/>
		</linearGradient>
		<path class="st18" d="M18.2,11.2l9-3.2c0,0,0.8,2.5-1.1,3.3c-1.9,0.8-5,1.8-5,1.8L18.2,11.2z"/>
		<path class="st19" d="M23.3,16.4l-7.1,4.1c-0.6,0.4-1.4,0.4-2,0L7,16.4c-0.6-0.4-1-1-1-1.8V6.4C6,5.7,6.4,5,7,4.7l7.1-4.1
			c0.6-0.4,1.4-0.4,2,0l7.1,4.1c0.6,0.4,1,1,1,1.8v8.2C24.3,15.4,23.9,16.1,23.3,16.4z"/>
		
			<linearGradient id="SVGID_19_" gradientUnits="userSpaceOnUse" x1="15.2039" y1="28.8658" x2="15.1229" y2="11.786" gradientTransform="matrix(1 0 0 -1 0 32)">
			<stop  offset="0" style="stop-color:#FFFFFF"/>
			<stop  offset="0.69" style="stop-color:#7C64D6"/>
			<stop  offset="1" style="stop-color:#E353F4"/>
			<stop  offset="1" style="stop-color:#B745E6"/>
		</linearGradient>
		<path class="st20" d="M23.1,15.8l-7.5,4.3c-0.3,0.2-0.7,0.2-1,0l-7.5-4.3c-0.3-0.2-0.5-0.5-0.5-0.8V6.5c0-0.3,0.2-0.7,0.5-0.8
			l7.5-4.3c0.3-0.2,0.7-0.2,1,0l7.5,4.3c0.3,0.2,0.5,0.5,0.5,0.8V15C23.6,15.4,23.4,15.7,23.1,15.8z"/>
		
			<linearGradient id="SVGID_20_" gradientUnits="userSpaceOnUse" x1="10.7389" y1="29.3119" x2="19.9587" y2="13.3431" gradientTransform="matrix(1 0 0 -1 0 32)">
			<stop  offset="0" style="stop-color:#FED3FD"/>
			<stop  offset="0.29" style="stop-color:#8985F5"/>
			<stop  offset="0.72" style="stop-color:#B745E6"/>
			<stop  offset="1" style="stop-color:#B442E7"/>
		</linearGradient>
		<path class="st21" d="M15.3,21c-0.4,0-0.7-0.1-1-0.3l-7.2-4.1c-0.6-0.4-1-1.1-1-1.8V6.6c0-0.7,0.4-1.4,1-1.8l7.2-4.1
			c0.6-0.4,1.4-0.4,2,0l7.2,4.1c0.6,0.4,1,1.1,1,1.8v8.2c0,0.7-0.4,1.4-1,1.8l0,0l-7.2,4.1C16.1,20.9,15.7,21,15.3,21z M15.3,1.6
			c-0.2,0-0.3,0-0.4,0.1L7.7,5.8C7.4,6,7.3,6.3,7.3,6.6v8.2c0,0.3,0.2,0.6,0.4,0.8l7.2,4.1c0.3,0.2,0.6,0.2,0.9,0l7.2-4.1
			c0.3-0.2,0.4-0.4,0.4-0.8V6.6c0-0.3-0.2-0.6-0.4-0.8l-7.2-4.1C15.6,1.6,15.5,1.6,15.3,1.6L15.3,1.6z"/>
		<path class="st19" d="M22.8,15.2l-7,4c-0.3,0.2-0.6,0.2-0.9,0l-7-4c-0.3-0.2-0.5-0.5-0.5-0.8v-8c0-0.3,0.2-0.6,0.5-0.8l7-4
			c0.3-0.2,0.6-0.2,0.9,0l7,4c0.3,0.2,0.5,0.5,0.5,0.8v8C23.2,14.7,23.1,15,22.8,15.2z"/>
		
			<image style="overflow:visible;enable-background:new    ;" width="286" height="321" xlink:href="13D6C507.png"  transform="matrix(5.440466e-02 0 0 5.440466e-02 7.4574 1.9427)">
		</image>
		
			<linearGradient id="SVGID_21_" gradientUnits="userSpaceOnUse" x1="11.4646" y1="28.1593" x2="19.3485" y2="14.5039" gradientTransform="matrix(1 0 0 -1 0 32)">
			<stop  offset="0" style="stop-color:#8532D7"/>
			<stop  offset="0.23" style="stop-color:#9F60E3"/>
			<stop  offset="0.45" style="stop-color:#9772F5"/>
			<stop  offset="0.8" style="stop-color:#D5ADFE"/>
			<stop  offset="1" style="stop-color:#E7D2FE"/>
		</linearGradient>
		<path class="st22" d="M15.4,19.5c-0.2,0-0.3,0-0.5-0.1l-7-3.9c-0.3-0.2-0.5-0.5-0.5-0.8V6.7c0-0.4,0.2-0.7,0.5-0.8l7-3.9
			c0.3-0.2,0.7-0.2,1,0l7,3.9c0.3,0.2,0.5,0.5,0.5,0.8v7.9c0,0.4-0.2,0.7-0.5,0.8l0,0l-7,4C15.7,19.5,15.6,19.5,15.4,19.5z
			 M15.4,2.5c-0.1,0-0.1,0-0.2,0l-7,3.9C8.1,6.5,8.1,6.6,8.1,6.7v7.9c0,0.1,0.1,0.2,0.2,0.3l7,3.9c0.1,0.1,0.2,0.1,0.3,0l7-3.9l0,0
			c0.1-0.1,0.2-0.2,0.2-0.3V6.7c0-0.1-0.1-0.2-0.2-0.3l-7-3.9C15.5,2.5,15.5,2.5,15.4,2.5L15.4,2.5z"/>
		
			<linearGradient id="SVGID_22_" gradientUnits="userSpaceOnUse" x1="10.1036" y1="22.8524" x2="12.5883" y2="22.8524" gradientTransform="matrix(1 0 0 -1 0 32)">
			<stop  offset="0" style="stop-color:#FFFFFF"/>
			<stop  offset="1" style="stop-color:#F4D6FF"/>
		</linearGradient>
		<polygon class="st23" points="10.1,10.3 12.2,8 12.6,8.8 11.2,10.3 		"/>
		
			<linearGradient id="SVGID_23_" gradientUnits="userSpaceOnUse" x1="15.9489" y1="23.5669" x2="12.4414" y2="23.6034" gradientTransform="matrix(1 0 0 -1 0 32)">
			<stop  offset="0" style="stop-color:#FFFFFF"/>
			<stop  offset="1" style="stop-color:#E0C8F0"/>
		</linearGradient>
		<polygon class="st24" points="18.2,8 12.2,8 12.6,8.8 17.8,8.8 		"/>
		
			<linearGradient id="SVGID_24_" gradientUnits="userSpaceOnUse" x1="19.434" y1="22.0146" x2="18.5026" y2="23.1337" gradientTransform="matrix(1 0 0 -1 0 32)">
			<stop  offset="0" style="stop-color:#CB57DF"/>
			<stop  offset="1" style="stop-color:#8B50D1"/>
		</linearGradient>
		<polygon class="st25" points="17.8,8.8 19.2,10.2 20.3,10.2 18.2,8 		"/>
		
			<linearGradient id="SVGID_25_" gradientUnits="userSpaceOnUse" x1="14.1985" y1="17.4178" x2="11.8003" y2="20.2996" gradientTransform="matrix(1 0 0 -1 0 32)">
			<stop  offset="0" style="stop-color:#45109C"/>
			<stop  offset="1" style="stop-color:#9D3BE4"/>
		</linearGradient>
		<polygon class="st26" points="15.1,16.3 10.1,10.3 11.2,10.3 15.1,15 		"/>
		
			<linearGradient id="SVGID_26_" gradientUnits="userSpaceOnUse" x1="15.8598" y1="17.1507" x2="18.0735" y2="19.8231" gradientTransform="matrix(1 0 0 -1 0 32)">
			<stop  offset="0" style="stop-color:#E324FA"/>
			<stop  offset="1" style="stop-color:#281BB0"/>
		</linearGradient>
		<polygon class="st27" points="19.2,10.2 15.1,15 15.1,16.3 20.3,10.2 		"/>
		
			<linearGradient id="SVGID_27_" gradientUnits="userSpaceOnUse" x1="13.3554" y1="18.1987" x2="12.8076" y2="21.0968" gradientTransform="matrix(1 0 0 -1 0 32)">
			<stop  offset="0" style="stop-color:#663A9C"/>
			<stop  offset="1" style="stop-color:#B47AD5"/>
		</linearGradient>
		<polygon class="st28" points="11.2,10.3 13.2,10.3 15.1,15 		"/>
		
			<linearGradient id="SVGID_28_" gradientUnits="userSpaceOnUse" x1="15.9581" y1="19.6313" x2="18.4183" y2="19.0959" gradientTransform="matrix(1 0 0 -1 0 32)">
			<stop  offset="0" style="stop-color:#E38EFF"/>
			<stop  offset="1" style="stop-color:#4D2BC0"/>
		</linearGradient>
		<polygon class="st29" points="19.2,10.2 17.1,10.3 15.1,15 		"/>
		
			<linearGradient id="SVGID_29_" gradientUnits="userSpaceOnUse" x1="15.1528" y1="20.9983" x2="15.082" y2="17.7689" gradientTransform="matrix(1 0 0 -1 0 32)">
			<stop  offset="0" style="stop-color:#7D60E4"/>
			<stop  offset="1" style="stop-color:#F0B1FF"/>
		</linearGradient>
		<polygon class="st30" points="13.2,10.3 17.1,10.3 15.1,15 		"/>
		
			<linearGradient id="SVGID_30_" gradientUnits="userSpaceOnUse" x1="12.2339" y1="22.9422" x2="12.2122" y2="21.9379" gradientTransform="matrix(1 0 0 -1 0 32)">
			<stop  offset="0" style="stop-color:#B69AD8"/>
			<stop  offset="1" style="stop-color:#C2AFF3"/>
		</linearGradient>
		<path class="st31" d="M11.2,10.3c0,0,1.3-1.4,1.4-1.5c0,0.1,0.7,1.4,0.7,1.4L11.2,10.3z"/>
		
			<linearGradient id="SVGID_31_" gradientUnits="userSpaceOnUse" x1="18.1685" y1="22.9177" x2="18.1473" y2="21.9504" gradientTransform="matrix(1 0 0 -1 0 32)">
			<stop  offset="0" style="stop-color:#B69AD8"/>
			<stop  offset="1" style="stop-color:#C2AFF3"/>
		</linearGradient>
		<polygon class="st32" points="19.2,10.2 17.8,8.8 17.1,10.3 		"/>
		
			<linearGradient id="SVGID_32_" gradientUnits="userSpaceOnUse" x1="15.1803" y1="22.952" x2="15.158" y2="21.9363" gradientTransform="matrix(1 0 0 -1 0 32)">
			<stop  offset="0" style="stop-color:#EDD7FE"/>
			<stop  offset="1" style="stop-color:#D5C9EC"/>
		</linearGradient>
		<path class="st33" d="M13.2,10.3c0.2-0.1,2-1.5,2-1.5l1.9,1.5L13.2,10.3z"/>
		
			<linearGradient id="SVGID_33_" gradientUnits="userSpaceOnUse" x1="13.3446" y1="22.6483" x2="14.258" y2="23.0776" gradientTransform="matrix(1 0 0 -1 0 32)">
			<stop  offset="0" style="stop-color:#EADAFF"/>
			<stop  offset="1" style="stop-color:#E3CAEE"/>
		</linearGradient>
		<polygon class="st34" points="13.2,10.3 15.2,8.8 12.6,8.8 		"/>
		
			<linearGradient id="SVGID_34_" gradientUnits="userSpaceOnUse" x1="16.0874" y1="22.4208" x2="16.9867" y2="22.8435" gradientTransform="matrix(1 0 0 -1 0 32)">
			<stop  offset="0" style="stop-color:#B9A5E5"/>
			<stop  offset="1" style="stop-color:#9771DE"/>
		</linearGradient>
		<polygon class="st35" points="17.1,10.3 17.8,8.9 15.2,8.8 		"/>
	</g>
</g>
</svg>
