<?xml version="1.0" encoding="utf-8"?>
<!-- Generator: Adobe Illustrator 22.1.0, SVG Export Plug-In . SVG Version: 6.00 Build 0)  -->
<svg version="1.1" id="Layer_1" xmlns="http://www.w3.org/2000/svg" xmlns:xlink="http://www.w3.org/1999/xlink" x="0px" y="0px" width="50px" height="50px"
	 viewBox="0 0 30 30" style="enable-background:new 0 0 30 30;" xml:space="preserve">
<style type="text/css">
	.st0{fill:#6669D8;}
	.st1{fill:url(#SVGID_1_);}
	.st2{fill:url(#SVGID_2_);}
	.st3{fill:url(#SVGID_3_);}
	.st4{fill:url(#SVGID_4_);}
	.st5{fill:#FEEBFF;}
	.st6{fill:#ABAAD5;}
	.st7{fill:url(#SVGID_5_);}
	.st8{fill:url(#SVGID_6_);}
	.st9{opacity:0.39;}
	.st10{fill:url(#SVGID_7_);}
	.st11{fill:url(#SVGID_8_);}
	.st12{fill:#A0A0C7;}
	.st13{fill:url(#SVGID_9_);}
	.st14{fill:url(#SVGID_10_);}
	.st15{fill:url(#SVGID_11_);}
	.st16{fill:url(#SVGID_12_);}
</style>
<g id="Layer_2_1_">
	<g id="Layer_1-2">
		<polygon class="st0" points="9.8,26.6 6.4,24.2 6.4,11.3 9.9,11.3 		"/>
		
			<linearGradient id="SVGID_1_" gradientUnits="userSpaceOnUse" x1="8.1444" y1="9.6337" x2="8.1444" y2="24.2073" gradientTransform="matrix(1 0 0 1 0 2)">
			<stop  offset="0.55" style="stop-color:#413A98"/>
			<stop  offset="0.63" style="stop-color:#413A98"/>
			<stop  offset="0.75" style="stop-color:#4847AE"/>
			<stop  offset="0.9" style="stop-color:#4F54C2"/>
			<stop  offset="1" style="stop-color:#5158C9"/>
		</linearGradient>
		<polygon class="st1" points="9.7,26.2 6.6,24.1 6.6,11.6 9.7,11.6 		"/>
		<polygon class="st0" points="20.2,26.6 23.6,24 23.6,11.2 20.1,11.2 		"/>
		
			<linearGradient id="SVGID_2_" gradientUnits="userSpaceOnUse" x1="-1473.5555" y1="9.5969" x2="-1473.5555" y2="24.1705" gradientTransform="matrix(-1 0 0 1 -1451.7 2)">
			<stop  offset="0.55" style="stop-color:#413A98"/>
			<stop  offset="0.63" style="stop-color:#413A98"/>
			<stop  offset="0.75" style="stop-color:#4847AE"/>
			<stop  offset="0.9" style="stop-color:#4F54C2"/>
			<stop  offset="1" style="stop-color:#5158C9"/>
		</linearGradient>
		<polygon class="st2" points="20.3,26.2 23.4,23.9 23.4,11.6 20.3,11.6 		"/>
		
			<linearGradient id="SVGID_3_" gradientUnits="userSpaceOnUse" x1="15.0493" y1="9.0249" x2="15.0493" y2="9.2315" gradientTransform="matrix(1 0 0 1 0 2)">
			<stop  offset="0.25" style="stop-color:#771351"/>
			<stop  offset="0.64" style="stop-color:#DD1936"/>
		</linearGradient>
		<polygon class="st3" points="20.3,11 20.3,11.2 9.8,11.2 9.8,11 		"/>
		<path class="st0" d="M10,21.9l-0.1,4.7l4.8,3.2c0.1,0.1,0.2,0.1,0.3,0l5-3.2L20,21.5l-5.1,2.2L10,21.9z"/>
		
			<linearGradient id="SVGID_4_" gradientUnits="userSpaceOnUse" x1="14.9507" y1="10.5358" x2="14.9507" y2="27.614" gradientTransform="matrix(1 0 0 1 0 2)">
			<stop  offset="0.72" style="stop-color:#4645B7"/>
			<stop  offset="0.72" style="stop-color:#4747BA"/>
			<stop  offset="0.84" style="stop-color:#535ADB"/>
			<stop  offset="0.94" style="stop-color:#5A66EF"/>
			<stop  offset="1" style="stop-color:#5D6AF6"/>
		</linearGradient>
		<path class="st4" d="M10.2,12.6l-0.1,13.9l4.6,3.1c0.1,0.1,0.2,0.1,0.2,0l4.8-3.1l-0.1-13.9H10.2z"/>
		<path class="st5" d="M24.7,20l-8.5,4.9c-0.8,0.5-1.8,0.5-2.6,0L5.2,20c-0.8-0.5-1.3-1.3-1.3-2.3v-10c0-0.9,0.5-1.8,1.3-2.3
			l8.5-4.9c0.8-0.5,1.8-0.5,2.6,0l8.5,4.9C25.5,6,26,6.8,26,7.7v10C26,18.7,25.5,19.5,24.7,20z"/>
		<path class="st6" d="M24.6,19l-9.1,5.2c-0.4,0.2-0.8,0.2-1.2,0L5.3,19c-0.4-0.2-0.6-0.6-0.6-1V7.7c0-0.4,0.2-0.8,0.6-1l9.1-5.2
			c0.4-0.2,0.8-0.2,1.2,0l9.1,5.2c0.4,0.2,0.6,0.6,0.6,1V18C25.2,18.4,25,18.8,24.6,19z"/>
		
			<linearGradient id="SVGID_5_" gradientUnits="userSpaceOnUse" x1="9.4097" y1="1.1969" x2="20.5752" y2="20.5355" gradientTransform="matrix(1 0 0 1 0 2)">
			<stop  offset="0" style="stop-color:#DEDAF1"/>
			<stop  offset="0.31" style="stop-color:#C7C4E3"/>
			<stop  offset="0.64" style="stop-color:#9893CC"/>
			<stop  offset="1" style="stop-color:#6D69A8"/>
		</linearGradient>
		<path class="st7" d="M15,25.4c-0.4,0-0.9-0.1-1.3-0.3l-8.5-5c-0.8-0.5-1.3-1.3-1.3-2.2V7.8c0-0.9,0.5-1.7,1.3-2.2l8.5-5
			c0.8-0.5,1.8-0.5,2.6,0l8.6,5c0.8,0.5,1.3,1.3,1.3,2.2v10.1c0,0.9-0.5,1.7-1.3,2.2l0,0l-8.5,5C15.8,25.2,15.4,25.4,15,25.4z
			 M15,1.6c-0.2,0-0.5,0.1-0.7,0.2L5.8,6.8C5.4,7,5.2,7.4,5.2,7.8v10.1c0,0.5,0.2,0.9,0.6,1.1l8.5,5c0.4,0.2,0.9,0.2,1.3,0l8.5-5
			c0.4-0.2,0.6-0.7,0.6-1.1V7.8c0-0.5-0.2-0.9-0.6-1.1l-8.6-5C15.4,1.6,15.2,1.6,15,1.6z"/>
		<path class="st5" d="M24,18.6l-8.5,4.8c-0.3,0.2-0.8,0.2-1.1,0L6,18.6c-0.3-0.2-0.6-0.6-0.6-1V7.9c0-0.4,0.2-0.8,0.6-1l8.5-4.7
			c0.3-0.2,0.8-0.2,1.1,0L24,7.1c0.3,0.2,0.6,0.6,0.6,1v9.7C24.6,18,24.4,18.4,24,18.6z"/>
		
			<linearGradient id="SVGID_6_" gradientUnits="userSpaceOnUse" x1="13.9158" y1="2.0923" x2="16.5283" y2="23.3835" gradientTransform="matrix(1 0 0 1 0 2)">
			<stop  offset="0" style="stop-color:#CCC6E7"/>
			<stop  offset="0.27" style="stop-color:#9997C8"/>
			<stop  offset="0.67" style="stop-color:#7377B6"/>
			<stop  offset="0.86" style="stop-color:#4E4D8B"/>
		</linearGradient>
		<path class="st8" d="M24.1,18.5l-8.9,5.1c-0.1,0.1-0.3,0.1-0.5,0l-8.9-5.1c-0.1-0.1-0.2-0.2-0.2-0.4V7.7c0-0.2,0.1-0.3,0.2-0.4
			l8.9-5.1c0.1-0.1,0.3-0.1,0.5,0l8.9,5.1c0.1,0.1,0.2,0.2,0.2,0.4v10.4C24.3,18.3,24.2,18.4,24.1,18.5z"/>
		<g class="st9">
			
				<linearGradient id="SVGID_7_" gradientUnits="userSpaceOnUse" x1="6.073" y1="10.8422" x2="23.9685" y2="10.8422" gradientTransform="matrix(1 0 0 1 0 2)">
				<stop  offset="0" style="stop-color:#463C93"/>
				<stop  offset="1" style="stop-color:#9B93C0"/>
			</linearGradient>
			<path class="st10" d="M15,23.2c-0.1,0-0.2,0-0.3-0.1l-8.3-4.8c-0.3-0.1-0.4-0.3-0.4-0.6V7.9c0-0.2,0.1-0.5,0.3-0.6l8.3-4.8
				c0.2-0.1,0.5-0.1,0.7,0l8.3,4.8c0.2,0.1,0.3,0.3,0.3,0.6v9.8c0,0.2-0.1,0.5-0.3,0.6l-8.3,4.8C15.2,23.2,15.1,23.2,15,23.2z
				 M6.9,17.7l8.2,4.8l8.2-4.8V8L15,3.2L6.9,8V17.7z"/>
		</g>
		
			<linearGradient id="SVGID_8_" gradientUnits="userSpaceOnUse" x1="10.104" y1="2.3992" x2="19.8987" y2="19.364" gradientTransform="matrix(1 0 0 1 0 2)">
			<stop  offset="0" style="stop-color:#555282"/>
			<stop  offset="0.23" style="stop-color:#6A659F"/>
			<stop  offset="0.45" style="stop-color:#7A78A2"/>
			<stop  offset="0.8" style="stop-color:#9B94C7"/>
			<stop  offset="1" style="stop-color:#B8B4DA"/>
		</linearGradient>
		<path class="st11" d="M15,24c-0.2,0-0.3,0-0.5-0.1l-8.8-5.1c-0.3-0.2-0.4-0.5-0.4-0.8V7.7c0-0.3,0.2-0.6,0.4-0.8l8.8-5.1
			c0.3-0.2,0.6-0.2,0.9,0L24.2,7c0.3,0.2,0.4,0.5,0.4,0.8V18c0,0.3-0.2,0.6-0.4,0.8l-8.8,5.1C15.3,24,15.1,24,15,24z M6.3,18
			l8.8,5.1l8.8-5.1V7.7L15,2.6L6.3,7.7V18z"/>
		<polygon class="st12" points="11.8,12.3 15,8.2 18.2,12.4 15,16.4 		"/>
		
			<linearGradient id="SVGID_9_" gradientUnits="userSpaceOnUse" x1="14.5268" y1="6.0749" x2="11.1065" y2="9.8157" gradientTransform="matrix(1 0 0 1 0 2)">
			<stop  offset="0" style="stop-color:#DEDAF1"/>
			<stop  offset="1" style="stop-color:#ACA6E4"/>
		</linearGradient>
		<polygon class="st13" points="10.1,12.4 11.8,12.4 15,8.2 15.1,6.1 		"/>
		
			<linearGradient id="SVGID_10_" gradientUnits="userSpaceOnUse" x1="13.4238" y1="12.6236" x2="12.3765" y2="13.7686" gradientTransform="matrix(1 0 0 1 0 2)">
			<stop  offset="0" style="stop-color:#6052A5"/>
			<stop  offset="1" style="stop-color:#7677AD"/>
		</linearGradient>
		<polygon class="st14" points="15,16.4 11.8,12.4 10.1,12.4 15,18.7 		"/>
		
			<linearGradient id="SVGID_11_" gradientUnits="userSpaceOnUse" x1="18.4991" y1="11.4953" x2="15.1002" y2="15.2133" gradientTransform="matrix(1 0 0 1 0 2)">
			<stop  offset="0" style="stop-color:#847CBB"/>
			<stop  offset="1" style="stop-color:#403D7C"/>
		</linearGradient>
		<polygon class="st15" points="18.2,12.4 20.1,12.4 15,18.7 15,16.4 		"/>
		
			<linearGradient id="SVGID_12_" gradientUnits="userSpaceOnUse" x1="17.6413" y1="7.1996" x2="16.5722" y2="8.3693" gradientTransform="matrix(1 0 0 1 0 2)">
			<stop  offset="0" style="stop-color:#847CBB"/>
			<stop  offset="1" style="stop-color:#403D7C"/>
		</linearGradient>
		<polygon class="st16" points="15.1,6.1 20.1,12.4 18.2,12.4 15,8.2 		"/>
	</g>
</g>
</svg>
