<?xml version="1.0" encoding="utf-8"?>
<!-- Generator: Adobe Illustrator 22.1.0, SVG Export Plug-In . SVG Version: 6.00 Build 0)  -->
<svg version="1.1" id="Layer_1" xmlns="http://www.w3.org/2000/svg" xmlns:xlink="http://www.w3.org/1999/xlink" x="0px" y="0px"
	 viewBox="0 0 40 40" style="enable-background:new 0 0 40 40;" xml:space="preserve">
<g>
	<path d="M39.9,18.4c-1,6.7-7.9,13-17.2,15.1c-2.1,0.5-4.3,0.7-6.5,0.7c-7,0-12.7-2.6-15.6-6.8c2,5.5,8.5,8.9,16.3,8.9
		c2.1,0,4.2-0.2,6.3-0.7C33.6,33.3,40.8,25.7,39.9,18.4z"/>
	<path d="M16.9,32.9c2.1,0,4.2-0.2,6.3-0.7c10.2-2.4,17.3-9.7,16.8-17c0-0.4-0.1-0.9-0.2-1.3c0-0.1,0-0.1,0-0.2
		c-0.1-0.4-0.2-0.8-0.3-1.2C37.5,7,31,3.6,23.2,3.6c-2.1,0-4.2,0.3-6.3,0.7C6.4,6.7-0.7,14.2,0.1,21.6c0,0.4,0.1,0.8,0.2,1.2V23
		c0.1,0.4,0.2,0.9,0.4,1.3C2.8,29.6,9.2,32.9,16.9,32.9z M15.3,5.7c0.1-0.2,0.3-0.3,0.5-0.3s0.3,0,0.5,0c0.2,0,0.3,0.1,0.4,0.3
		c0,0,0.1,0.1,0.1,0.2s0,0.1,0,0.2s-0.1,0.2-0.1,0.3l0,0l0.2,0.2l0.2,0.2c0,0,0,0,0.1,0.1l0.2,0.3c0.1,0.1,0.2,0.3,0.3,0.4
		c0,0.1,0.1,0.1,0.1,0.2L17.9,8c0,0,0.1,0.1,0.2,0.3l0,0l0.1,0.2c-0.1,0.1-0.3,0.3-0.4,0.4c-0.1,0-0.2,0-0.4,0l0,0
		c-0.1,0-0.3,0-0.4,0c-0.1-0.1-0.1-0.2-0.2-0.3l0,0c-0.1-0.1-0.1-0.2-0.2-0.3l0,0c-0.1-0.1-0.1-0.2-0.2-0.3
		c-0.1-0.1-0.1-0.3-0.2-0.4s-0.1-0.2-0.1-0.2V7.3C16,7.1,16,7,15.9,6.8V6.7l0,0c-0.2,0-0.4-0.1-0.6-0.2c-0.1-0.1-0.1-0.2-0.1-0.2
		V6.2C15.1,6,15.2,5.8,15.3,5.7z M18.7,9L18.7,9l0.4-0.2c0.3-0.2,0.7-0.3,1-0.5l0,0L21,7.9c0.2-0.1,0.3-0.1,0.5-0.2s0.4-0.1,0.6-0.2
		l0.2-0.1l0,0c0-0.1,0.1-0.2,0.1-0.3C22.6,7,22.8,6.9,23,6.9c0.1,0,0.2,0,0.2,0c0.3,0,0.6,0.2,0.7,0.5l0,0c0,0.1,0,0.3-0.1,0.4
		s-0.2,0.3-0.3,0.3c-0.1,0.1-0.2,0.1-0.3,0.1c-0.1,0-0.2,0-0.2,0c-0.1,0-0.2,0-0.3-0.1l0,0c-0.2,0.1-0.4,0.3-0.6,0.4
		c-0.4,0.2-0.9,0.5-1.3,0.6c-0.2,0.1-0.4,0.2-0.6,0.3l-0.4,0.1l-0.4,0.1l0,0c-0.1,0-0.2,0-0.3,0h-0.2c-0.3,0-0.6-0.1-0.6-0.1
		c-0.1,0.3-0.3,0.5-0.5,0.7h-0.1l-0.1,0.1l-0.2,0.1c-0.3,0.2-0.7,0.3-1,0.5h-0.1c-0.4,0.2-0.9,0.4-1.3,0.5c-0.2,0.1-0.5,0.2-0.7,0.2
		l0,0c-0.1,0.3-0.4,0.6-0.7,0.6c-0.1,0-0.2,0-0.2,0c-0.3,0-0.6-0.2-0.7-0.5c-0.1-0.4,0.2-0.7,0.7-0.8c0.1,0,0.2,0,0.2,0
		c0.1,0,0.2,0,0.4,0.1l0,0c0.2-0.1,0.4-0.3,0.6-0.4c0.4-0.2,0.7-0.4,1.1-0.6l0.2-0.1c0.3-0.2,0.7-0.3,1-0.4l0.4-0.1l0,0
		c0.1,0,0.2,0,0.3,0h0.2c0.3,0,0.6,0.1,0.6,0.1s0.1-0.1,0.2-0.2C18.4,9.2,18.6,9.1,18.7,9z M18.4,7.4c0.8-0.1,1.6-0.2,2.4-0.3
		c-0.3,0.1-0.6,0.3-1,0.4h-0.1c-0.3,0.2-0.6,0.3-0.9,0.4c0-0.1-0.1-0.2-0.2-0.3L18.4,7.4z M24.5,8.2c0.1-0.1,0.1-0.2,0.2-0.4
		c0-0.1,0.1-0.2,0.1-0.4c4.2,0.8,7.4,3.3,8.2,6.7c0.6,2.6-0.2,5.3-2.4,7.7c-2.3,2.4-5.3,4.1-8.6,4.8c-1.4,0.3-2.7,0.5-4.1,0.5
		c-1.1,0-2.3-0.1-3.4-0.3c-0.4,0.3-1,0.5-1.5,0.5c-1.2,0-2.2-0.8-2.5-2c-1.9-1.1-3.3-2.9-3.9-5.1c-1.1-4.8,2.9-9.9,9.1-12l0.2,0.3
		c0,0.1,0.1,0.1,0.1,0.2v0.1v0.1c0.1,0.1,0.1,0.2,0.2,0.4c-0.3,0.1-0.6,0.2-0.9,0.4L15,9.8l-0.3-0.4c-1.8,0.8-3.4,1.9-4.8,3.3
		l7.9,1.8c0.1-0.2,0.3-0.4,0.4-0.5l0.1,0.6l0.1,0.3l0,0c0,0.1,0.1,0.2,0.1,0.2c0.1,0.1,0.2,0.2,0.3,0.2c0.1,0.1,0.2,0.1,0.4,0.1l0,0
		c0.1,0,0.1,0,0.2,0s0.1,0,0.2-0.1s0.2-0.2,0.3-0.3c0.1-0.1,0.1-0.2,0.1-0.3l0,0l0,0c0.1,0,0.2,0,0.4,0h0.2h0.1l0,0l11.7,0.5
		c0-0.3-0.1-0.7-0.1-1c-0.3-1.2-0.9-2.4-1.9-3.3L22,13.7c0.1-0.2,0.1-0.5,0.1-0.8c0-0.2-0.2-0.5-0.4-0.6l4.1-3.9
		C25.3,8.4,24.9,8.2,24.5,8.2z M16.7,11.7c0.3-0.1,0.6-0.3,0.9-0.4c0,0.1,0.1,0.2,0.1,0.2l0.4,1.9L16.7,11.7z M19.7,13.1
		c-0.1-0.1-0.1-0.1-0.1-0.2l-0.1-0.1l-0.2-0.2c-0.2-0.3-0.5-0.6-0.7-1c-0.1-0.2-0.3-0.4-0.4-0.7c0.1-0.1,0.3-0.3,0.4-0.4h0.3H19
		c0.1,0,0.3,0,0.4,0c0.1,0.2,0.3,0.4,0.4,0.6l0,0c0.2,0.4,0.4,0.7,0.5,1.1c0.1,0.2,0.2,0.4,0.2,0.5l0,0c0.2,0,0.4,0.1,0.5,0.2
		c0.1,0.1,0.1,0.2,0.2,0.3c0,0.4-0.3,0.8-0.7,0.8h-0.1h-0.2c-0.1,0-0.2,0-0.4-0.1c-0.1,0-0.2-0.1-0.2-0.1c-0.1-0.1-0.1-0.2-0.2-0.3
		l0,0c0-0.1,0-0.2,0-0.3C19.6,13.2,19.6,13.1,19.7,13.1L19.7,13.1z M3,16.3c0.1-0.5,0.3-0.9,0.5-1.3c0.2-0.5,0.5-1,0.8-1.5
		c2-3.2,5.6-5.9,10-7.5c0,0.1,0,0.3,0,0.4l0,0c0,0.1,0.1,0.2,0.1,0.3C12,7.5,9.8,8.8,7.8,10.4c-0.6,0.6-1.2,1.3-1.8,2
		c-0.4,0.5-0.8,1.1-1.2,1.7c-1.4,2.1-1.9,4.7-1.4,7.2c1.2,5.1,6.9,8.4,13.8,8.4c1.8,0,3.5-0.2,5.2-0.6c9-2.1,15.2-8.9,13.7-15.3
		c-0.6-2.5-2.2-4.6-4.4-5.9c-0.6-0.4-1.2-0.7-1.8-1c-0.8-0.4-1.7-0.7-2.6-0.9c-1.6-0.4-3.3-0.6-5-0.6c-1.6,0-3.3,0.2-4.8,0.5
		c0-0.1,0-0.1,0-0.2V5.6c0-0.1-0.1-0.2-0.2-0.3c1.7-0.4,3.4-0.6,5.1-0.6l0,0c3.4-0.1,6.8,0.8,9.7,2.6c0.5,0.3,0.9,0.6,1.4,1
		c0.4,0.3,0.7,0.6,1.1,1c1.2,1.2,2,2.8,2.4,4.5c0.8,3.3-0.3,6.8-3.1,9.9c-3,3.2-6.9,5.4-11.2,6.3c-1.8,0.4-3.6,0.6-5.4,0.6
		C9.8,30.6,4,27,2.8,21.7C2.4,19.8,2.4,18,3,16.3z"/>
	<path d="M19.8,15.7l5.3,9.1c2.1-0.9,4-2.3,5.4-4.1l-10.1-5.4C20.2,15.5,20,15.6,19.8,15.7z"/>
	<path d="M17.7,15L7.2,17.4c-0.3,1.6,0.1,3.3,1,4.7l9.8-6.6C17.8,15.4,17.7,15.2,17.7,15z"/>
	<path d="M14.7,22.9c0.5,0.5,0.8,1.1,0.8,1.9c0,0.5-0.2,1-0.4,1.4c0.9,0.2,1.8,0.2,2.7,0.2c0.4,0,0.8,0,1.2-0.1l0.1-10.4
		c-0.2,0-0.4,0-0.6-0.1L14.7,22.9z"/>
	<path d="M30.9,20.1c-0.1,0.2-0.3,0.4-0.5,0.6L30.9,20.1z"/>
	<path d="M13,22.9c-1,0-1.8,0.8-1.8,1.8c0,0,0,0,0,0.1c0,0.2,0,0.3,0.1,0.5l0,0c0.1,0.2,0.2,0.4,0.3,0.6c0.3,0.5,0.9,0.7,1.4,0.7
		c0.1,0,0.2,0,0.3,0c0.4-0.1,0.7-0.3,1-0.5c0.7-0.7,0.7-1.9-0.1-2.6C13.9,23.1,13.4,22.9,13,22.9L13,22.9z M13,23.5v0.2
		c-0.5,0-1,0.4-1,1h-0.4C11.6,24,12.2,23.4,13,23.5L13,23.5L13,23.5z"/>
</g>
</svg>
