<?xml version="1.0" encoding="utf-8"?>
<!-- Generator: Adobe Illustrator 21.0.0, SVG Export Plug-In . SVG Version: 6.00 Build 0)  -->
<svg version="1.1" id="Layer_1" xmlns="http://www.w3.org/2000/svg" xmlns:xlink="http://www.w3.org/1999/xlink" x="0px" y="0px"
	 viewBox="0 0 40 40" style="enable-background:new 0 0 40 40;" xml:space="preserve">
<g>
	<path d="M38.3,24v5.3L20,38.6L1.7,29.3V24H38.3z M1.7,24L20,33.3L38.3,24"/>
	<path d="M21.3,9.3v12c0,0.1,0,0.2-0.1,0.3c-0.1,0.1-0.2,0.2-0.4,0.2c-0.1,0.1-0.3,0.1-0.4,0.1c-0.1,0-0.3,0-0.4,0
		c-0.1,0-0.2,0-0.4,0c-0.1,0-0.3-0.1-0.4-0.1c-0.1-0.1-0.3-0.1-0.4-0.2c-0.1-0.1-0.2-0.2-0.2-0.3v-12H21.3z"/>
	<path d="M38.3,21.3L20,30.6L1.7,21.3L20,12L38.3,21.3z M27.9,21.3c0-0.5-0.1-1-0.4-1.4c-0.3-0.4-0.7-0.7-1.1-1
		c-0.5-0.3-1-0.5-1.6-0.7c-0.6-0.2-1.2-0.4-1.7-0.5c-0.6-0.1-1.1-0.2-1.7-0.3c-0.5-0.1-1-0.1-1.4-0.1c-0.5,0-1,0-1.5,0.1
		c-0.5,0.1-1,0.1-1.5,0.2c-0.4,0.1-0.9,0.2-1.5,0.4c-0.6,0.2-1.1,0.4-1.6,0.7c-0.5,0.3-0.9,0.7-1.3,1.1c-0.3,0.4-0.5,0.9-0.5,1.4
		c0,0.5,0.2,1,0.5,1.4c0.3,0.4,0.8,0.8,1.3,1.1c0.5,0.3,1,0.6,1.6,0.7c0.6,0.2,1,0.3,1.5,0.4c0.5,0.1,1,0.2,1.5,0.2
		c0.5,0.1,1,0.1,1.5,0.1c0.4,0,0.8,0,1.4-0.1c0.5-0.1,1.1-0.1,1.7-0.3c0.6-0.1,1.2-0.3,1.7-0.5c0.6-0.2,1.1-0.4,1.6-0.7
		c0.5-0.3,0.8-0.6,1.1-1C27.7,22.3,27.9,21.8,27.9,21.3 M5.6,21.3c0,0.3,0.1,0.5,0.3,0.6c0.2,0.2,0.4,0.3,0.7,0.4
		c0.3,0.1,0.6,0.2,0.9,0.2c0.3,0,0.5,0.1,0.7,0.1c0.2,0,0.4,0,0.7-0.1c0.3,0,0.6-0.1,0.9-0.2c0.3-0.1,0.5-0.2,0.7-0.4
		c0.2-0.2,0.3-0.4,0.3-0.6V20H5.6V21.3z"/>
	<path d="M10.8,20c0,0.3-0.1,0.5-0.3,0.6c-0.2,0.2-0.4,0.3-0.7,0.4c-0.3,0.1-0.6,0.2-0.9,0.2c-0.3,0-0.5,0.1-0.7,0.1
		c-0.2,0-0.4,0-0.7-0.1c-0.3,0-0.6-0.1-0.9-0.2c-0.3-0.1-0.5-0.2-0.7-0.4c-0.2-0.2-0.3-0.4-0.3-0.6c0-0.3,0.1-0.5,0.3-0.7
		c0.2-0.2,0.4-0.3,0.7-0.4c0.3-0.1,0.6-0.2,0.9-0.2c0.3,0,0.5-0.1,0.7-0.1c0.2,0,0.4,0,0.7,0.1c0.3,0,0.6,0.1,0.9,0.2
		c0.3,0.1,0.5,0.2,0.7,0.4C10.7,19.5,10.8,19.7,10.8,20"/>
	<path d="M25.2,6.7c0,0.7-0.1,1.4-0.4,2.1c-0.3,0.6-0.6,1.2-1.1,1.7c-0.5,0.5-1,0.9-1.7,1.1c-0.6,0.3-1.3,0.4-2,0.4
		c-0.7,0-1.4-0.1-2-0.4c-0.6-0.3-1.2-0.7-1.7-1.1c-0.5-0.5-0.9-1.1-1.1-1.7c-0.3-0.6-0.4-1.3-0.4-2.1c0-0.7,0.1-1.4,0.4-2.1
		c0.3-0.6,0.7-1.2,1.1-1.7c0.5-0.5,1-0.9,1.7-1.1c0.6-0.3,1.3-0.4,2-0.4c0.7,0,1.4,0.1,2,0.4c0.6,0.3,1.2,0.7,1.7,1.1
		c0.5,0.5,0.8,1,1.1,1.7S25.2,5.9,25.2,6.7"/>
</g>
</svg>
