<?xml version="1.0" encoding="utf-8"?>
<!-- Generator: Adobe Illustrator 22.1.0, SVG Export Plug-In . SVG Version: 6.00 Build 0)  -->
<svg version="1.1" id="Layer_1" xmlns="http://www.w3.org/2000/svg" xmlns:xlink="http://www.w3.org/1999/xlink" x="0px" y="0px"
	 viewBox="0 0 40 40" style="enable-background:new 0 0 40 40;" xml:space="preserve">
<g>
	<path d="M30.6,12.7C30.4,4.5,23.7,0,15.5,0S0.6,4.5,0.4,12.7l0,0V40h30.2V12.7z M5.9,7.2c2.4-2.5,5.6-3.7,9.6-3.7s7.3,1.3,9.6,3.7
		c0.3,0.3,0.3,0.8,0,1.1s-0.8,0.3-1.1,0l0,0c-2.1-2.1-4.9-3.2-8.5-3.2S9.1,6.2,7,8.3c-0.3,0.3-0.8,0.3-1.1,0C5.6,8,5.6,7.5,5.9,7.2z
		 M25.5,34.3H5.4c-0.4,0-0.8-0.4-0.7-0.9c0-0.4,0.3-0.7,0.7-0.7h20.1c0.4,0,0.8,0.4,0.7,0.9C26.2,34,25.9,34.3,25.5,34.3z
		 M28.6,28.5c0,0.7-0.5,1.2-1.2,1.2H3.6c-0.7,0-1.2-0.5-1.2-1.2V16.3c0-0.6,0.6-1.2,1.2-1.2h23.8c0.7,0,1.2,0.5,1.2,1.2V28.5z"/>
	<path d="M9.2,28.7c0.9,0,1.6-0.7,1.6-1.6v-9.3c0-0.9-0.7-1.6-1.6-1.6h-4c-0.9,0-1.6,0.7-1.6,1.6l0,0v9.3c0,0.9,0.7,1.6,1.6,1.6
		L9.2,28.7z M9.2,27.1L9.2,27.1z M5.2,17.8h4v9.3h-4V17.8z"/>
	<polygon points="9.2,27.9 9.2,27.1 9.2,27.1 	"/>
	<path d="M13.4,16.2c-0.9,0-1.6,0.7-1.6,1.6v9.3c0,0.9,0.7,1.6,1.6,1.6l0,0h4c0.9,0,1.6-0.7,1.6-1.6v-9.3c0-0.9-0.7-1.6-1.6-1.6l0,0
		C17.4,16.2,13.4,16.2,13.4,16.2z M17.5,27.1h-4v-9.3h4V27.1z M17.5,27.9v-0.8l0,0V27.9z"/>
	<polygon points="17.5,27.9 17.5,27.1 17.5,27.1 	"/>
	<path d="M25.8,16.2h-4c-0.9,0-1.6,0.7-1.6,1.6l0,0v9.3c0,0.9,0.7,1.6,1.6,1.6h4c0.9,0,1.6-0.7,1.6-1.6v-9.3
		C27.4,16.9,26.7,16.2,25.8,16.2L25.8,16.2z M25.8,27.1h-4v-9.3h4V27.1z M25.8,27.9v-0.8l0,0V27.9z"/>
	<polygon points="25.8,27.9 25.8,27.1 25.8,27.1 	"/>
	<path d="M33.4,20c0-0.4,0.4-0.8,0.8-0.8v-1.6c0-0.4-0.4-0.8-0.8-0.8h-2.8v6.3h2.8c0.4,0,0.8-0.4,0.8-0.8v-1.5
		C33.7,20.8,33.4,20.5,33.4,20z"/>
	<path d="M36.8,7.2v12h-2.5c-0.4,0-0.8,0.3-0.9,0.7c0,0.4,0.3,0.8,0.7,0.9h0.1h3.3c0.4,0,0.8-0.3,0.8-0.8l0,0V7.2
		c-0.2,0.1-0.5,0.2-0.8,0.2C37.3,7.4,37,7.3,36.8,7.2z"/>
	<path d="M39.6,5.3c0-1.1-0.9-2-2-2s-2,0.9-2,2c0,0.8,0.5,1.5,1.2,1.9c0.3,0.1,0.5,0.2,0.8,0.2C38.7,7.4,39.6,6.5,39.6,5.3L39.6,5.3
		z"/>
	<path d="M8.7,21.5c-0.1-0.7-0.5-1.6-1.3-1.6c-0.2,0-0.5-0.1-0.7-0.2l-0.1-0.1c0,0.1-0.1,0.2-0.2,0.3L6.5,20l0,0l0.2,0
		c0.5,0.5,0.8,1.3,0.7,2c-0.1,0.5-0.3,1.1-0.6,1.5c-0.2,0.3-0.5,0.6-0.8,0.9c-0.1,0.1-0.2,0.3-0.3,0.5l0,0l0,0c0,0,0,0,0.1,0.1
		s0,0.1,0,0.1l0,0c0.2,0.1,0.5,0.1,0.7,0C7,25,7.4,24.8,7.7,24.5c0.4-0.5,0.7-1,0.9-1.5C8.7,22.5,8.8,22,8.7,21.5z"/>
	<path d="M5.8,25.1c-0.1-0.1,0,0-0.1-0.1s0,0,0,0L5.8,25.1L5.8,25.1L5.8,25.1L5.8,25.1C5.8,25.1,5.9,25.1,5.8,25.1z"/>
	<path d="M17,21.5c-0.1-0.7-0.5-1.6-1.3-1.6c-0.2,0-0.5-0.1-0.7-0.2l-0.1-0.1c0,0.1-0.1,0.2-0.2,0.3l0.1,0.1l0,0l0.1,0.1
		c0.5,0.6,0.8,1.3,0.7,2c-0.1,0.5-0.3,1.1-0.6,1.5c-0.2,0.3-0.5,0.6-0.8,0.9c-0.1,0.1-0.2,0.3-0.3,0.5l0,0l0,0c0,0,0,0,0.1,0.1v0.1
		l0,0c0.2,0.1,0.5,0.1,0.7,0c0.4-0.1,0.9-0.4,1.2-0.7c0.4-0.4,0.7-0.9,0.9-1.5C16.9,22.5,17,22,17,21.5z"/>
	<path d="M14.1,25.1c-0.1-0.1,0,0-0.1-0.1s0,0,0,0L14.1,25.1L14.1,25.1L14.1,25.1L14.1,25.1L14.1,25.1z"/>
	<path d="M25.3,21.5c-0.1-0.7-0.5-1.6-1.3-1.6c-0.2,0-0.5-0.1-0.7-0.2l-0.1-0.1c0,0.1-0.1,0.2-0.2,0.3l0.1,0.1l0,0l0.1,0.1
		c0.5,0.5,0.8,1.3,0.7,2c-0.1,0.5-0.3,1.1-0.6,1.5c-0.2,0.3-0.5,0.6-0.8,0.9c-0.1,0.1-0.2,0.3-0.3,0.5l0,0l0,0c0,0,0,0,0.1,0.1
		s0,0.1,0,0.1l0,0c0.2,0.1,0.5,0.1,0.7,0c0.4-0.1,0.9-0.4,1.2-0.7c0.4-0.4,0.7-0.9,0.9-1.5C25.2,22.5,25.3,22,25.3,21.5z"/>
	<path d="M22.4,25.1c-0.1-0.1,0,0-0.1-0.1s0,0,0,0L22.4,25.1L22.4,25.1L22.4,25.1L22.4,25.1L22.4,25.1z"/>
</g>
</svg>
