<?xml version="1.0" encoding="utf-8"?>
<!-- Generator: Adobe Illustrator 22.1.0, SVG Export Plug-In . SVG Version: 6.00 Build 0)  -->
<svg version="1.1" id="Layer_1" xmlns="http://www.w3.org/2000/svg" xmlns:xlink="http://www.w3.org/1999/xlink" x="0px" y="0px"
	 viewBox="0 0 40 40" style="enable-background:new 0 0 40 40;" xml:space="preserve">
<g>
	<path d="M10.1,26.1c-0.5-0.2-1-0.2-1.4-0.1c-0.2,0-0.3,0.1-0.5,0.1l-0.1-1.7l2.4-0.4l-0.1-0.7l-3,0.6L7.6,27
		c0.3-0.1,0.6-0.2,0.9-0.3c1.2-0.2,1.9,0.2,2.1,1.1c0.1,0.8-0.4,1.5-1.2,1.6l0,0c-0.5,0.1-1,0-1.4-0.1L7.8,30
		c0.5,0.2,1.1,0.2,1.6,0.1c1.2-0.1,2.1-1.2,1.9-2.4v-0.1C11.2,26.9,10.8,26.3,10.1,26.1z"/>
	<path d="M11.7,17.7c-6.2,0-11.1,5-11.1,11.1S5.5,40,11.7,40s11.1-5,11.1-11.1S17.8,17.7,11.7,17.7L11.7,17.7z M9.2,32.1
		c-2.9,0-5.3-2.4-5.3-5.3s2.4-5.3,5.3-5.3s5.3,2.4,5.3,5.3l0,0C14.4,29.8,12.1,32.1,9.2,32.1L9.2,32.1z"/>
	<path d="M33,20.9c-0.5-0.3-1.1-0.4-1.7-0.3l-0.1,0.6c0.4-0.1,0.9,0,1.3,0.2c0.5,0.2,0.8,0.7,0.6,1.2c0,0.1,0,0.1-0.1,0.2
		c-0.4,0.6-1.1,0.7-1.7,0.3L31,22.9l-0.3,0.6l0.4,0.2c0.7,0.4,1.2,1,0.9,1.8c-0.3,0.6-1,0.8-1.6,0.5c-0.1,0-0.1-0.1-0.2-0.1
		c-0.4-0.2-0.8-0.6-1-1l-0.5,0.5c0.3,0.5,0.7,0.8,1.2,1.1c1.3,0.7,2.4,0.3,2.8-0.6c0.4-0.7,0.1-1.6-0.5-2l0,0
		c0.7,0.1,1.3-0.2,1.7-0.8C34.2,22.3,34,21.5,33,20.9z"/>
	<path d="M28.3,11.2c-4.6,0-8.8,2.9-10.4,7.2c4.8,2.8,7,8.5,5.5,13.9c5.5,2.7,12.2,0.5,14.9-5s0.5-12.2-5-14.9
		C31.8,11.5,30.1,11.1,28.3,11.2L28.3,11.2z M31.3,29c-2.9,0-5.3-2.4-5.3-5.3s2.4-5.3,5.3-5.3s5.2,2.4,5.3,5.2
		C36.6,26.6,34.3,29,31.3,29L31.3,29z"/>
	<polygon points="10,6.6 13.2,6.6 13.2,6.6 10.4,12.5 11.3,12.5 14.2,6.4 14.2,5.8 10,5.8 	"/>
	<path d="M6.9,17.6c3-1.3,6.5-1.3,9.5,0l0.6,0.3c0.9-2.2,2.4-4.2,4.3-5.6c1.3-0.9,2.8-1.6,4.3-1.9C25.2,4.3,19.9-0.4,13.8,0
		S3,5.7,3.4,11.9c0.2,2.3,1,4.5,2.5,6.3C6.2,17.9,6.6,17.8,6.9,17.6z M12.1,3.9c2.9,0,5.3,2.4,5.3,5.3s-2.4,5.3-5.3,5.3
		s-5.3-2.4-5.3-5.3l0,0C6.8,6.3,9.1,3.9,12.1,3.9L12.1,3.9L12.1,3.9z"/>
</g>
</svg>
