<?xml version="1.0" encoding="utf-8"?>
<!-- Generator: Adobe Illustrator 22.1.0, SVG Export Plug-In . SVG Version: 6.00 Build 0)  -->
<svg version="1.1" id="Layer_1" xmlns="http://www.w3.org/2000/svg" xmlns:xlink="http://www.w3.org/1999/xlink" x="0px" y="0px"
	 viewBox="0 0 40 40" style="enable-background:new 0 0 40 40;" xml:space="preserve">
<style type="text/css">
	.st0{display:none;fill:#FFFFFF;}
	.st1{display:none;}
	.st2{display:inline;fill:#FFFFFF;}
</style>
<path class="st0" d="M36.4,152.3c0-1.7-0.5-3.3-1.3-4.7c-1.7-2.5-3.8-4.8-6.1-6.7c-2.5-2.2-4.8-4.6-6.7-7.3c-1.3-2-2.2-4.3-2.8-6.6
	c-0.6,2.4-1.5,4.6-2.8,6.7c-1.9,2.7-4.2,5.2-6.7,7.3c-2.3,1.9-4.4,4.2-6.1,6.7c-0.8,1.4-1.3,3-1.3,4.6c-0.1,2.1,0.7,4.1,2.2,5.6
	c1.4,1.5,3.4,2.3,5.4,2.2c1.8,0,3.6-0.6,5-1.7c1.6-1.4,3-3.1,3.9-5c0,5.2-2.7,14.5-8.8,14.9l-0.3,1.3h19l-0.3-1.3
	c-6.2-0.4-8.8-9.7-8.8-14.9c0.9,1.9,2.3,3.6,3.9,5c1.4,1.1,3.2,1.7,5,1.7c2,0,4-0.8,5.4-2.2C35.7,156.4,36.5,154.4,36.4,152.3z"/>
<path class="st0" d="M-11,187c0,2.8,2.2,5,5,5h50.9c2.8,0,5-2.2,5-5v-77.3c0-2.8-2.2-5-5-5H-6c-2.8,0-5,2.2-5,5V187L-11,187z
	 M-6,187v-77.2h50.9V187H-6L-6,187z"/>
<path class="st0" d="M6.2,195.4c1,2.5,3.9,3.8,6.4,2.8l46.5-18.6c2.5-1,3.8-3.9,2.7-6.5l-28.5-71c-1-2.5-3.9-3.8-6.4-2.8l-46.5,18.6
	c-2.5,1-3.8,3.9-2.7,6.5L6.2,195.4L6.2,195.4z M10.7,193.5l-28.4-70.9L28.8,104l28.4,70.9L10.7,193.5L10.7,193.5z"/>
<path class="st0" d="M-13.5,156c-13,0-23.5,10.5-23.5,23.5S-26.5,203-13.5,203S10,192.5,10,179.5S-0.5,156-13.5,156z M1.4,165
	c2.5,2.5,4.3,5.5,5.3,8.9L2.8,175c-0.8-2.7-2.3-5.2-4.3-7.2L1.4,165z M-13.3,159c3.5,0,6.9,0.9,10,2.5l-1.9,3.5
	c-2.4-1.4-5.2-2.1-8-2.1L-13.3,159L-13.3,159z M0,179.5C0,187-6,193-13.5,193S-27,187-27,179.5s6-13.5,13.5-13.5S0,172,0,179.5z
	 M-19,159.8l1.1,3.8c-2.7,0.8-5.2,2.3-7.2,4.3l-2.8-2.8C-25.5,162.6-22.4,160.8-19,159.8z M-34,179.8c0-3.5,0.9-7,2.6-10l3.5,1.9
	c-1.4,2.5-2.1,5.3-2.1,8.1H-34L-34,179.8z M-27.9,194.4c-2.5-2.5-4.3-5.6-5.3-8.9l3.8-1.1c0.8,2.7,2.3,5.2,4.3,7.2L-27.9,194.4z
	 M-13.3,200.5c-3.5,0-7-0.9-10-2.6l1.9-3.5c2.5,1.3,5.3,2.1,8.1,2.1L-13.3,200.5L-13.3,200.5z M-7.5,199.7l-1.1-3.8
	c2.7-0.8,5.2-2.3,7.2-4.3l2.8,2.8C-1,196.9-4.1,198.7-7.5,199.7z M4.9,189.8l-3.5-1.9c1.4-2.5,2.1-5.3,2.1-8.1l4-0.1v0.1
	C7.5,183.3,6.6,186.7,4.9,189.8z"/>
<g class="st1">
	<path class="st2" d="M-12.4,178.1c1.1,0.4,2.1,0.7,2.8,1s1.3,0.8,1.8,1.5s0.8,1.5,0.8,2.6c0,0.9-0.2,1.7-0.7,2.4
		c-0.4,0.7-1.1,1.3-2,1.8c-0.9,0.4-2,0.7-3.3,0.7l0,0v1.9h-0.9v-2c-1.7-0.1-3-0.7-4.1-1.5s-1.6-2-1.7-3.5h3.6
		c0.1,0.6,0.3,1.1,0.7,1.5s0.9,0.7,1.5,0.9v-4.7l-0.5-0.1c-1.2-0.3-2.1-0.7-2.8-1s-1.3-0.8-1.8-1.5s-0.8-1.5-0.8-2.6
		c0-0.9,0.3-1.8,0.8-2.5s1.2-1.2,2.1-1.6c0.9-0.4,1.9-0.6,3-0.6v-2h0.9v2c1.7,0.1,3,0.6,4,1.5s1.5,1.9,1.7,3.3H-11
		c-0.1-0.5-0.3-1-0.6-1.4s-0.8-0.6-1.4-0.7v4.6L-12.4,178.1z M-15.6,176.7c0.4,0.4,0.9,0.7,1.7,1v-4.3c-0.7,0-1.3,0.2-1.6,0.6
		c-0.4,0.3-0.6,0.8-0.6,1.4C-16.2,175.9-16,176.3-15.6,176.7z M-11.3,184.9c0.4-0.4,0.6-0.9,0.6-1.5s-0.2-1.1-0.6-1.4
		c-0.4-0.4-1-0.7-1.7-0.9v4.5C-12.3,185.5-11.7,185.3-11.3,184.9z"/>
</g>
<g>
	<path d="M15.5,25.7c0.5-1.5,1.9-2.6,3.9-2.9l3.4-0.5l1.6-3.2c0.9-1.9,2.3-3,3.9-3s3,1.1,3.9,2.9l1.6,3.2l1.5,0.2l2.7-2.8
		c3.3-3.4,2.2-6.6-2.3-7.3l-8.3-1.2l-3.8-7.7c-2.1-4.3-5.4-4.2-7.4,0.1l-3.7,7.8l-8.3,1.3c-4.6,0.7-5.6,4-2.2,7.3l6.1,6
		c0,0-0.6,3.8-1.4,8.5s2,6.7,6,4.4l6.5-3.6l0.4-2.4L17,30.3C15.6,28.9,15,27.2,15.5,25.7z"/>
	<path d="M37,24.7l-4.6-0.6l-2.1-4.2c-1.1-2.3-3-2.3-4.1,0l-2,4.3l-4.6,0.7c-2.5,0.4-3.1,2.2-1.2,4l3.3,3.3L21,36.9
		c-0.4,2.6,1.1,3.7,3.3,2.4l4.1-2.2l4.1,2.2c2.2,1.2,3.7,0.1,3.3-2.5L35,32l3.3-3.3C40.1,26.9,39.5,25.1,37,24.7z"/>
</g>
<g id="Layer_1_1_">
</g>
</svg>
