<?xml version="1.0" encoding="utf-8"?>
<!-- Generator: Adobe Illustrator 22.1.0, SVG Export Plug-In . SVG Version: 6.00 Build 0)  -->
<svg version="1.1" id="Layer_1" xmlns="http://www.w3.org/2000/svg" xmlns:xlink="http://www.w3.org/1999/xlink" x="0px" y="0px"
	 viewBox="0 0 40 40" style="enable-background:new 0 0 40 40;" xml:space="preserve">
<g>
	<path d="M11.6,18.9v0.3h0.1L11.6,18.9z"/>
	<path d="M36,0H12.9c-0.7,0.3-1.2,0.9-1.3,1.7c0,0.1,0,0.2,0,0.3v16.9l0.1,0.3c0.3,0,0.7-0.1,1-0.1H13c3.7,0.1,7,2.1,8.9,5
		c1.7-0.2,2.4-2.8,2.4-4.3c-0.3,0.6-0.6,1-1.1,1.5c-0.4,0.3-0.9,0.5-1.5,0.5s-1.1-0.2-1.6-0.6c-0.4-0.4-0.7-1-0.6-1.6
		c0-0.5,0.1-0.9,0.4-1.3c0.5-0.7,1.1-1.4,1.8-1.9c0.7-0.6,1.4-1.3,1.9-2.1c0.4-0.6,0.6-1.2,0.8-1.9c0.2,0.7,0.4,1.3,0.8,1.9
		c0.6,0.8,1.2,1.5,1.9,2.1c0.7,0.6,1.3,1.2,1.8,1.9c0.2,0.4,0.4,0.9,0.4,1.4c0,0.6-0.2,1.2-0.6,1.6s-1,0.7-1.6,0.6
		c-0.5,0-1-0.2-1.5-0.5c-0.5-0.4-0.8-0.9-1.1-1.5c0,1.5,0.8,4.2,2.5,4.3l0.1,0.4h-5c0.9,1.6,1.5,3.5,1.5,5.5c0,2.6-0.9,4.9-2.4,6.8
		h13.9c1.2,0,2.1-0.9,2.1-2.1V2C37.3,1.1,36.7,0.3,36,0z M17.9,5.5c-0.1,0.2-0.3,0.2-0.6,0.2c-0.2,0-0.4,0-0.5-0.2
		c-0.2-0.1-0.3-0.3-0.4-0.5c0,0.6,0.3,1.5,0.9,1.6v0.1h-2V6.6c0.7,0,0.9-1,0.9-1.6c-0.1,0.2-0.2,0.4-0.4,0.5
		c-0.1,0.1-0.3,0.2-0.5,0.2s-0.4-0.1-0.6-0.2c-0.2-0.2-0.2-0.4-0.2-0.6s0.1-0.3,0.1-0.5c0.2-0.3,0.4-0.5,0.7-0.7s0.5-0.5,0.7-0.8
		c0.1-0.2,0.2-0.5,0.3-0.7c0.1,0.2,0.2,0.5,0.3,0.7c0.2,0.3,0.4,0.6,0.7,0.8c0.2,0.2,0.5,0.4,0.6,0.7C18,4.6,18,4.7,18,4.9
		C18.1,5.1,18,5.3,17.9,5.5z M34.6,32.3c-0.2,0.3-0.4,0.5-0.6,0.7c-0.3,0.2-0.5,0.5-0.7,0.8c-0.1,0.1-0.1,0.2-0.1,0.2
		C33,34.1,33,34.3,33,34.4c0-0.1-0.1-0.2-0.1-0.3s-0.1-0.2-0.2-0.3c-0.2-0.3-0.4-0.5-0.6-0.7c0,0-0.1,0-0.1-0.1
		c-0.2-0.2-0.5-0.5-0.6-0.7s-0.1-0.3-0.1-0.5s0.1-0.4,0.2-0.6c0.1-0.1,0.4-0.2,0.6-0.2c0.2,0,0.4,0.1,0.5,0.2
		c0.2,0.1,0.3,0.3,0.4,0.5c0-0.6-0.3-1.5-0.9-1.6V30h2v0.1c-0.7,0-0.9,1-0.9,1.6c0.1-0.2,0.2-0.4,0.4-0.5s0.3-0.2,0.5-0.2
		s0.4,0.1,0.6,0.2c0.1,0.2,0.2,0.4,0.2,0.6c0,0.1,0,0.1,0,0.2C34.7,32.1,34.7,32.2,34.6,32.3z"/>
	<g>
		<path d="M12.7,19.9c-0.4,0-0.8,0-1.2,0.1c-5,0.6-8.9,4.8-8.9,10c0,5.5,4.5,10,10,10c2.9,0,5.6-1.3,7.4-3.3
			c1.6-1.8,2.6-4.2,2.6-6.8C22.8,24.4,18.3,19.9,12.7,19.9z M19.1,23.8c1.1,1.1,1.8,2.4,2.3,3.8l-1.6,0.5c-0.3-1.2-1-2.2-1.8-3.1
			L19.1,23.8z M12.9,21.2c1.5,0,3,0.4,4.3,1.1l-0.8,1.5c-1-0.6-2.2-0.9-3.4-0.9v-1.7H12.9z M12.7,24.2c3.2,0,5.8,2.6,5.8,5.8
			s-2.6,5.8-5.8,5.8c-0.3,0-0.6,0-0.9-0.1C9.1,35.2,7,32.8,7,30s2-5.1,4.6-5.6C12,24.2,12.3,24.2,12.7,24.2z M10.4,21.6l0.5,1.6
			c-1.2,0.3-2.2,1-3.1,1.8l-1.2-1.2C7.6,22.8,8.9,22,10.4,21.6z M4,30.1c0-1.5,0.4-3,1.1-4.3l1.5,0.8C6,27.7,5.7,28.8,5.7,30H4V30.1
			z M6.6,36.3c-1.1-1.1-1.8-2.4-2.3-3.8L6,32.1c0.3,1.2,1,2.2,1.8,3.1L6.6,36.3z M12.9,38.9c-1.5,0-3-0.4-4.3-1.1l0.8-1.5
			c1.1,0.6,2.2,0.9,3.5,0.9V38.9L12.9,38.9z M15.3,38.6L14.8,37c0.2-0.1,0.4-0.1,0.6-0.2c0.9-0.4,1.7-0.9,2.4-1.6l1.2,1.2
			c-0.1,0.1-0.3,0.3-0.4,0.4C17.7,37.6,16.6,38.2,15.3,38.6z M20.6,34.4l-1.5-0.8c0.6-1.1,0.9-2.3,0.9-3.5h1.7l0,0
			C21.7,31.6,21.3,33.1,20.6,34.4z"/>
		<g>
			<path d="M15.2,30.5c-0.2-0.3-0.5-0.5-0.8-0.6s-0.7-0.3-1.2-0.4L13,29.3v-1.9c0.2,0,0.4,0.1,0.6,0.3c0.1,0.2,0.2,0.4,0.3,0.6h1.6
				c-0.1-0.6-0.3-1-0.7-1.4s-1-0.6-1.7-0.6v-0.9h-0.4v0.9c-0.4,0-0.7,0.1-1,0.1c-0.1,0-0.2,0.1-0.3,0.1c-0.4,0.2-0.7,0.4-0.9,0.7
				c-0.2,0.3-0.3,0.6-0.3,1.1s0.1,0.8,0.3,1.1c0.2,0.3,0.5,0.5,0.8,0.6c0.1,0.1,0.3,0.1,0.4,0.2c0.2,0.1,0.5,0.2,0.8,0.3l0.2,0.1v2
				c-0.3-0.1-0.5-0.2-0.7-0.4s-0.3-0.4-0.3-0.7h-1.5c0.1,0.6,0.3,1.1,0.7,1.5c0.2,0.2,0.5,0.3,0.8,0.5c0.3,0.1,0.6,0.2,1,0.2v0.8H13
				v-0.8l0,0c0.6,0,1-0.1,1.4-0.3s0.7-0.4,0.9-0.8c0.2-0.3,0.3-0.6,0.3-1C15.5,31.1,15.4,30.7,15.2,30.5z M12.6,29.2
				c-0.3-0.1-0.5-0.3-0.7-0.4c-0.2-0.2-0.2-0.4-0.2-0.6c0-0.3,0.1-0.5,0.3-0.6s0.4-0.2,0.7-0.2v1.8H12.6z M13.7,32.3
				c-0.2,0.2-0.4,0.3-0.7,0.3v-1.9c0.3,0.1,0.6,0.2,0.7,0.4c0.2,0.2,0.3,0.4,0.3,0.6S13.9,32.1,13.7,32.3z"/>
		</g>
	</g>
</g>
</svg>
