<?xml version="1.0" encoding="utf-8"?>
<!-- Generator: Adobe Illustrator 21.0.0, SVG Export Plug-In . SVG Version: 6.00 Build 0)  -->
<svg version="1.1" id="Layer_1" xmlns="http://www.w3.org/2000/svg" xmlns:xlink="http://www.w3.org/1999/xlink" x="0px" y="0px"
	 viewBox="0 0 40 40" style="enable-background:new 0 0 40 40;" xml:space="preserve">
<style type="text/css">
	.st0{fill:#1E1E1E;}
</style>
<g>
	<path class="st0" d="M19.5,22.7c-0.4-0.1-0.8-0.3-1.1-0.5l-6.7,6.6c2.1,1.9,4.8,3.1,7.8,3.3L19.5,22.7z"/>
	<path class="st0" d="M10.7,27.9l6.7-6.6c-0.2-0.3-0.4-0.7-0.5-1.1l-9.4,0C7.7,23.1,8.9,25.8,10.7,27.9z"/>
	<path class="st0" d="M20.6,21.4c0.5-0.1,1-0.4,1.3-0.8v0c0.2-0.3,0.3-0.7,0.3-1.1c0-0.1,0-0.3,0-0.4c-0.1-0.4-0.3-0.7-0.5-1
		c0,0,0,0,0,0c0,0,0,0,0,0c-0.1-0.1-0.2-0.1-0.3-0.2c-0.3-0.2-0.7-0.3-1-0.3c0,0-0.1,0-0.1,0c0,0,0,0,0,0c0,0-0.1,0-0.1,0
		c-0.1,0-0.2,0-0.3,0c-0.4,0.1-0.7,0.3-1,0.5c0,0,0,0,0,0c0,0,0,0,0,0c-0.1,0.1-0.2,0.2-0.2,0.3c-0.2,0.3-0.3,0.7-0.3,1.1
		c0,0.1,0,0.3,0,0.4c0.1,0.5,0.4,1,0.8,1.3c0.3,0.2,0.7,0.3,1.1,0.3C20.4,21.4,20.5,21.4,20.6,21.4z"/>
	<path class="st0" d="M22,9.4c-0.3,0.8-0.9,1.3-1.8,1.3c-0.8,0-1.5-0.5-1.8-1.3L17.7,7c-2.3,0.5-4.3,1.5-5.9,3l6.6,6.7
		c0.3-0.2,0.7-0.4,1.1-0.5l0-3.9c0-0.4,0.3-0.7,0.7-0.7c0,0,0,0,0,0c0.4,0,0.7,0.3,0.7,0.7l0,3.8c0.4,0.1,0.8,0.2,1.2,0.5l6.7-6.6
		c-1.7-1.5-3.7-2.6-6-3L22,9.4z"/>
	<path class="st0" d="M29.7,11l-6.7,6.6c0.2,0.4,0.4,0.7,0.5,1.2l9.4,0C32.8,15.9,31.6,13.1,29.7,11z"/>
	<path class="st0" d="M22,22.3c-0.4,0.2-0.7,0.4-1.2,0.5l0,9.4c3-0.1,5.7-1.3,7.8-3.2L22,22.3z"/>
	<path class="st0" d="M17.4,17.6L10.8,11c-1.9,2.1-3.1,4.8-3.3,7.7l9.4,0C17,18.4,17.2,18,17.4,17.6z"/>
	<path class="st0" d="M32.9,20.2l-9.4,0c-0.1,0.4-0.3,0.8-0.5,1.2l6.6,6.7C31.6,25.9,32.8,23.2,32.9,20.2z"/>
	<path class="st0" d="M19.8,8.9c0.1,0.3,0.3,0.3,0.4,0.3c0.1,0,0.3,0,0.4-0.3c0,0,0,0,0,0l2.6-8c0.1-0.2,0-0.3-0.1-0.4
		c0-0.1-0.2-0.2-0.4-0.2h-5.2c-0.2,0-0.3,0.1-0.4,0.2c0,0.1-0.1,0.2-0.1,0.4L19.8,8.9z"/>
	<path class="st0" d="M6.1,19.5c0-3.4,1.2-6.7,3.4-9.2c2-2.3,4.7-3.9,7.7-4.6l-0.8-2.5C9,4.9,3.7,11.6,3.7,19.3
		c0,5.5,2.7,10.6,7.2,13.7l0.5-2.6C8.2,27.8,6.1,23.9,6.1,19.5z"/>
	<path class="st0" d="M24.2,37.9h-7.8c-0.5,0-0.9,0.4-0.9,0.9V40h9.7v-1.2C25.1,38.3,24.7,37.9,24.2,37.9z"/>
	<path class="st0" d="M24,3.2l-0.8,2.5c3,0.6,5.7,2.2,7.7,4.6c2.2,2.6,3.4,5.8,3.4,9.2c0,4.4-2,8.4-5.2,11l0.5,2.6
		c4.5-3.1,7.2-8.2,7.2-13.7C36.8,11.6,31.5,4.9,24,3.2z"/>
	<path class="st0" d="M27.9,31.3c-2.2,1.4-4.8,2.3-7.7,2.3c-2.8,0-5.4-0.8-7.6-2.2l-1.5,8.3c0,0.1,0,0.2,0.1,0.3
		c0,0,0.1,0.1,0.2,0.1H14v-1.2c0-1.3,1-2.3,2.3-2.3h7.8c1.3,0,2.3,1,2.3,2.3V40H29c0.1,0,0.2-0.1,0.2-0.1c0,0,0.1-0.1,0.1-0.3
		L27.9,31.3z"/>
</g>
</svg>
