<?xml version="1.0" encoding="utf-8"?>
<!-- Generator: Adobe Illustrator 22.1.0, SVG Export Plug-In . SVG Version: 6.00 Build 0)  -->
<svg version="1.1" id="Layer_1" xmlns="http://www.w3.org/2000/svg" xmlns:xlink="http://www.w3.org/1999/xlink" x="0px" y="0px"
	 viewBox="0 0 40 40" style="enable-background:new 0 0 40 40;" xml:space="preserve">
<path d="M34.2,5.6h-3.4c-1-1.1-2.2-2-3.7-2.4V1.4H12.8v1.8c-1.4,0.4-2.7,1.3-3.6,2.4H5.8C2.6,5.6,0,7.8,0,10.5v6.8
	c0,2.7,2.6,4.9,5.8,4.9h4.1c0.9,1.9,2.6,3.3,4.6,3.9l0,0c0,0,7.8,5.9-2.1,7.9c-0.7,0-1.3,1-1.3,2.3s0.6,2.3,1.3,2.3h15.3
	c0.7,0,1.3-1,1.3-2.3S28.4,34,27.7,34c-10-2-2.1-7.9-2.1-7.9l0,0c2-0.6,3.7-2,4.6-3.9h4.1c3.2,0,5.8-2.2,5.8-4.9v-6.8
	C40,7.8,37.4,5.6,34.2,5.6z M5.8,19.6c-1.7,0-3.1-1-3.1-2.2v-6.8c0-1.2,1.4-2.2,3.1-2.2h2c-0.2,0.7-0.3,1.4-0.3,2.1L9.1,19
	c0,0.2,0,0.4,0,0.6H5.8z M23.2,15.7l0.4,4L20,18.1l-3.7,1.6l0.4-4l-2.7-3l3.9-0.8l2-3.5l2,3.5l3.9,0.8L23.2,15.7z M37.3,17.3
	c0,1.2-1.4,2.2-3.1,2.2h-3.3c0-0.2,0-0.4,0-0.6l1.7-8.7c0-0.7-0.1-1.4-0.3-2.1h2c1.7,0,3.1,1,3.1,2.2v7H37.3z"/>
</svg>
